solid OpenSCAD_Model
  facet normal 0.994522 0.104529 0
    outer loop
      vertex 1.875 0 10
      vertex 1.83403 0.389834 0
      vertex 1.83403 0.389834 10
    endloop
  endfacet
  facet normal 0.994522 0.104529 0
    outer loop
      vertex 1.83403 0.389834 0
      vertex 1.875 0 10
      vertex 1.875 0 0
    endloop
  endfacet
  facet normal 0.951057 0.309017 0
    outer loop
      vertex 1.83403 0.389834 10
      vertex 1.7129 0.762631 0
      vertex 1.7129 0.762631 10
    endloop
  endfacet
  facet normal 0.951057 0.309017 0
    outer loop
      vertex 1.7129 0.762631 0
      vertex 1.83403 0.389834 10
      vertex 1.83403 0.389834 0
    endloop
  endfacet
  facet normal 0.866025 0.5 0
    outer loop
      vertex 1.7129 0.762631 10
      vertex 1.51691 1.1021 0
      vertex 1.51691 1.1021 10
    endloop
  endfacet
  facet normal 0.866025 0.5 0
    outer loop
      vertex 1.51691 1.1021 0
      vertex 1.7129 0.762631 10
      vertex 1.7129 0.762631 0
    endloop
  endfacet
  facet normal 0.743145 0.669131 0
    outer loop
      vertex 1.51691 1.1021 10
      vertex 1.25462 1.3934 0
      vertex 1.25462 1.3934 10
    endloop
  endfacet
  facet normal 0.743145 0.669131 0
    outer loop
      vertex 1.25462 1.3934 0
      vertex 1.51691 1.1021 10
      vertex 1.51691 1.1021 0
    endloop
  endfacet
  facet normal 0.587785 0.809017 -0
    outer loop
      vertex 1.25462 1.3934 0
      vertex 0.9375 1.6238 10
      vertex 1.25462 1.3934 10
    endloop
  endfacet
  facet normal 0.587785 0.809017 0
    outer loop
      vertex 0.9375 1.6238 10
      vertex 1.25462 1.3934 0
      vertex 0.9375 1.6238 0
    endloop
  endfacet
  facet normal 0.406737 0.913545 -0
    outer loop
      vertex 0.9375 1.6238 0
      vertex 0.579407 1.78323 10
      vertex 0.9375 1.6238 10
    endloop
  endfacet
  facet normal 0.406737 0.913545 0
    outer loop
      vertex 0.579407 1.78323 10
      vertex 0.9375 1.6238 0
      vertex 0.579407 1.78323 0
    endloop
  endfacet
  facet normal 0.207912 0.978148 -0
    outer loop
      vertex 0.579407 1.78323 0
      vertex 0.195991 1.86473 10
      vertex 0.579407 1.78323 10
    endloop
  endfacet
  facet normal 0.207912 0.978148 0
    outer loop
      vertex 0.195991 1.86473 10
      vertex 0.579407 1.78323 0
      vertex 0.195991 1.86473 0
    endloop
  endfacet
  facet normal 0 1 -0
    outer loop
      vertex 0.195991 1.86473 0
      vertex -0.195991 1.86473 10
      vertex 0.195991 1.86473 10
    endloop
  endfacet
  facet normal 0 1 0
    outer loop
      vertex -0.195991 1.86473 10
      vertex 0.195991 1.86473 0
      vertex -0.195991 1.86473 0
    endloop
  endfacet
  facet normal -0.207912 0.978148 0
    outer loop
      vertex -0.195991 1.86473 0
      vertex -0.579407 1.78323 10
      vertex -0.195991 1.86473 10
    endloop
  endfacet
  facet normal -0.207912 0.978148 0
    outer loop
      vertex -0.579407 1.78323 10
      vertex -0.195991 1.86473 0
      vertex -0.579407 1.78323 0
    endloop
  endfacet
  facet normal -0.406737 0.913545 0
    outer loop
      vertex -0.579407 1.78323 0
      vertex -0.9375 1.6238 10
      vertex -0.579407 1.78323 10
    endloop
  endfacet
  facet normal -0.406737 0.913545 0
    outer loop
      vertex -0.9375 1.6238 10
      vertex -0.579407 1.78323 0
      vertex -0.9375 1.6238 0
    endloop
  endfacet
  facet normal -0.587785 0.809017 0
    outer loop
      vertex -0.9375 1.6238 0
      vertex -1.25462 1.3934 10
      vertex -0.9375 1.6238 10
    endloop
  endfacet
  facet normal -0.587785 0.809017 0
    outer loop
      vertex -1.25462 1.3934 10
      vertex -0.9375 1.6238 0
      vertex -1.25462 1.3934 0
    endloop
  endfacet
  facet normal -0.743145 0.669131 0
    outer loop
      vertex -1.51691 1.1021 0
      vertex -1.25462 1.3934 10
      vertex -1.25462 1.3934 0
    endloop
  endfacet
  facet normal -0.743145 0.669131 0
    outer loop
      vertex -1.25462 1.3934 10
      vertex -1.51691 1.1021 0
      vertex -1.51691 1.1021 10
    endloop
  endfacet
  facet normal -0.866025 0.5 0
    outer loop
      vertex -1.7129 0.762631 0
      vertex -1.51691 1.1021 10
      vertex -1.51691 1.1021 0
    endloop
  endfacet
  facet normal -0.866025 0.5 0
    outer loop
      vertex -1.51691 1.1021 10
      vertex -1.7129 0.762631 0
      vertex -1.7129 0.762631 10
    endloop
  endfacet
  facet normal -0.951057 0.309017 0
    outer loop
      vertex -1.83403 0.389834 0
      vertex -1.7129 0.762631 10
      vertex -1.7129 0.762631 0
    endloop
  endfacet
  facet normal -0.951057 0.309017 0
    outer loop
      vertex -1.7129 0.762631 10
      vertex -1.83403 0.389834 0
      vertex -1.83403 0.389834 10
    endloop
  endfacet
  facet normal -0.994522 0.104529 0
    outer loop
      vertex -1.875 1.06229e-15 0
      vertex -1.83403 0.389834 10
      vertex -1.83403 0.389834 0
    endloop
  endfacet
  facet normal -0.994522 0.104529 0
    outer loop
      vertex -1.83403 0.389834 10
      vertex -1.875 1.06229e-15 0
      vertex -1.875 1.06229e-15 10
    endloop
  endfacet
  facet normal -0.994522 -0.104529 0
    outer loop
      vertex -1.83403 -0.389834 0
      vertex -1.875 1.06229e-15 10
      vertex -1.875 1.06229e-15 0
    endloop
  endfacet
  facet normal -0.994522 -0.104529 0
    outer loop
      vertex -1.875 1.06229e-15 10
      vertex -1.83403 -0.389834 0
      vertex -1.83403 -0.389834 10
    endloop
  endfacet
  facet normal -0.951057 -0.309017 0
    outer loop
      vertex -1.7129 -0.762631 0
      vertex -1.83403 -0.389834 10
      vertex -1.83403 -0.389834 0
    endloop
  endfacet
  facet normal -0.951057 -0.309017 0
    outer loop
      vertex -1.83403 -0.389834 10
      vertex -1.7129 -0.762631 0
      vertex -1.7129 -0.762631 10
    endloop
  endfacet
  facet normal -0.866025 -0.5 0
    outer loop
      vertex -1.51691 -1.1021 0
      vertex -1.7129 -0.762631 10
      vertex -1.7129 -0.762631 0
    endloop
  endfacet
  facet normal -0.866025 -0.5 0
    outer loop
      vertex -1.7129 -0.762631 10
      vertex -1.51691 -1.1021 0
      vertex -1.51691 -1.1021 10
    endloop
  endfacet
  facet normal -0.743145 -0.669131 0
    outer loop
      vertex -1.25462 -1.3934 0
      vertex -1.51691 -1.1021 10
      vertex -1.51691 -1.1021 0
    endloop
  endfacet
  facet normal -0.743145 -0.669131 0
    outer loop
      vertex -1.51691 -1.1021 10
      vertex -1.25462 -1.3934 0
      vertex -1.25462 -1.3934 10
    endloop
  endfacet
  facet normal -0.587785 -0.809017 0
    outer loop
      vertex -1.25462 -1.3934 0
      vertex -0.9375 -1.6238 10
      vertex -1.25462 -1.3934 10
    endloop
  endfacet
  facet normal -0.587785 -0.809017 -0
    outer loop
      vertex -0.9375 -1.6238 10
      vertex -1.25462 -1.3934 0
      vertex -0.9375 -1.6238 0
    endloop
  endfacet
  facet normal -0.406737 -0.913545 0
    outer loop
      vertex -0.9375 -1.6238 0
      vertex -0.579407 -1.78323 10
      vertex -0.9375 -1.6238 10
    endloop
  endfacet
  facet normal -0.406737 -0.913545 -0
    outer loop
      vertex -0.579407 -1.78323 10
      vertex -0.9375 -1.6238 0
      vertex -0.579407 -1.78323 0
    endloop
  endfacet
  facet normal -0.207912 -0.978148 0
    outer loop
      vertex -0.579407 -1.78323 0
      vertex -0.195991 -1.86473 10
      vertex -0.579407 -1.78323 10
    endloop
  endfacet
  facet normal -0.207912 -0.978148 -0
    outer loop
      vertex -0.195991 -1.86473 10
      vertex -0.579407 -1.78323 0
      vertex -0.195991 -1.86473 0
    endloop
  endfacet
  facet normal 0 -1 0
    outer loop
      vertex -0.195991 -1.86473 0
      vertex 0.195991 -1.86473 10
      vertex -0.195991 -1.86473 10
    endloop
  endfacet
  facet normal 0 -1 -0
    outer loop
      vertex 0.195991 -1.86473 10
      vertex -0.195991 -1.86473 0
      vertex 0.195991 -1.86473 0
    endloop
  endfacet
  facet normal 0.207912 -0.978148 0
    outer loop
      vertex 0.195991 -1.86473 0
      vertex 0.579407 -1.78323 10
      vertex 0.195991 -1.86473 10
    endloop
  endfacet
  facet normal 0.207912 -0.978148 0
    outer loop
      vertex 0.579407 -1.78323 10
      vertex 0.195991 -1.86473 0
      vertex 0.579407 -1.78323 0
    endloop
  endfacet
  facet normal 0.406737 -0.913545 0
    outer loop
      vertex 0.579407 -1.78323 0
      vertex 0.9375 -1.6238 10
      vertex 0.579407 -1.78323 10
    endloop
  endfacet
  facet normal 0.406737 -0.913545 0
    outer loop
      vertex 0.9375 -1.6238 10
      vertex 0.579407 -1.78323 0
      vertex 0.9375 -1.6238 0
    endloop
  endfacet
  facet normal 0.587785 -0.809017 0
    outer loop
      vertex 0.9375 -1.6238 0
      vertex 1.25462 -1.3934 10
      vertex 0.9375 -1.6238 10
    endloop
  endfacet
  facet normal 0.587785 -0.809017 0
    outer loop
      vertex 1.25462 -1.3934 10
      vertex 0.9375 -1.6238 0
      vertex 1.25462 -1.3934 0
    endloop
  endfacet
  facet normal 0.743145 -0.669131 0
    outer loop
      vertex 1.25462 -1.3934 10
      vertex 1.51691 -1.1021 0
      vertex 1.51691 -1.1021 10
    endloop
  endfacet
  facet normal 0.743145 -0.669131 0
    outer loop
      vertex 1.51691 -1.1021 0
      vertex 1.25462 -1.3934 10
      vertex 1.25462 -1.3934 0
    endloop
  endfacet
  facet normal 0.866025 -0.5 0
    outer loop
      vertex 1.51691 -1.1021 10
      vertex 1.7129 -0.762631 0
      vertex 1.7129 -0.762631 10
    endloop
  endfacet
  facet normal 0.866025 -0.5 0
    outer loop
      vertex 1.7129 -0.762631 0
      vertex 1.51691 -1.1021 10
      vertex 1.51691 -1.1021 0
    endloop
  endfacet
  facet normal 0.951057 -0.309017 0
    outer loop
      vertex 1.7129 -0.762631 10
      vertex 1.83403 -0.389834 0
      vertex 1.83403 -0.389834 10
    endloop
  endfacet
  facet normal 0.951057 -0.309017 0
    outer loop
      vertex 1.83403 -0.389834 0
      vertex 1.7129 -0.762631 10
      vertex 1.7129 -0.762631 0
    endloop
  endfacet
  facet normal 0.994522 -0.104529 0
    outer loop
      vertex 1.83403 -0.389834 10
      vertex 1.875 0 0
      vertex 1.875 0 10
    endloop
  endfacet
  facet normal 0.994522 -0.104529 0
    outer loop
      vertex 1.875 0 0
      vertex 1.83403 -0.389834 10
      vertex 1.83403 -0.389834 0
    endloop
  endfacet
  facet normal 0 0 -1
    outer loop
      vertex 1.83403 -0.389834 0
      vertex 1.83403 0.389834 0
      vertex 1.875 0 0
    endloop
  endfacet
  facet normal 0 0 -1
    outer loop
      vertex 1.7129 -0.762631 0
      vertex 1.83403 0.389834 0
      vertex 1.83403 -0.389834 0
    endloop
  endfacet
  facet normal 0 0 -1
    outer loop
      vertex 1.7129 -0.762631 0
      vertex 1.7129 0.762631 0
      vertex 1.83403 0.389834 0
    endloop
  endfacet
  facet normal 0 0 -1
    outer loop
      vertex 1.51691 -1.1021 0
      vertex 1.7129 0.762631 0
      vertex 1.7129 -0.762631 0
    endloop
  endfacet
  facet normal 0 0 -1
    outer loop
      vertex 1.51691 -1.1021 0
      vertex 1.51691 1.1021 0
      vertex 1.7129 0.762631 0
    endloop
  endfacet
  facet normal 0 0 -1
    outer loop
      vertex 1.25462 -1.3934 0
      vertex 1.51691 1.1021 0
      vertex 1.51691 -1.1021 0
    endloop
  endfacet
  facet normal 0 0 -1
    outer loop
      vertex 1.25462 -1.3934 0
      vertex 1.25462 1.3934 0
      vertex 1.51691 1.1021 0
    endloop
  endfacet
  facet normal 0 0 -1
    outer loop
      vertex 0.9375 -1.6238 0
      vertex 1.25462 1.3934 0
      vertex 1.25462 -1.3934 0
    endloop
  endfacet
  facet normal 0 0 -1
    outer loop
      vertex 0.9375 -1.6238 0
      vertex 0.9375 1.6238 0
      vertex 1.25462 1.3934 0
    endloop
  endfacet
  facet normal 0 0 -1
    outer loop
      vertex 0.579407 -1.78323 0
      vertex 0.9375 1.6238 0
      vertex 0.9375 -1.6238 0
    endloop
  endfacet
  facet normal 0 0 -1
    outer loop
      vertex 0.579407 -1.78323 0
      vertex 0.579407 1.78323 0
      vertex 0.9375 1.6238 0
    endloop
  endfacet
  facet normal 0 0 -1
    outer loop
      vertex 0.195991 -1.86473 0
      vertex 0.579407 1.78323 0
      vertex 0.579407 -1.78323 0
    endloop
  endfacet
  facet normal 0 0 -1
    outer loop
      vertex 0.195991 -1.86473 0
      vertex 0.195991 1.86473 0
      vertex 0.579407 1.78323 0
    endloop
  endfacet
  facet normal 0 0 -1
    outer loop
      vertex -0.195991 -1.86473 0
      vertex 0.195991 1.86473 0
      vertex 0.195991 -1.86473 0
    endloop
  endfacet
  facet normal 0 0 -1
    outer loop
      vertex -0.195991 -1.86473 0
      vertex -0.195991 1.86473 0
      vertex 0.195991 1.86473 0
    endloop
  endfacet
  facet normal 0 0 -1
    outer loop
      vertex -0.579407 -1.78323 0
      vertex -0.195991 1.86473 0
      vertex -0.195991 -1.86473 0
    endloop
  endfacet
  facet normal 0 0 -1
    outer loop
      vertex -0.579407 -1.78323 0
      vertex -0.579407 1.78323 0
      vertex -0.195991 1.86473 0
    endloop
  endfacet
  facet normal 0 0 -1
    outer loop
      vertex -0.9375 -1.6238 0
      vertex -0.579407 1.78323 0
      vertex -0.579407 -1.78323 0
    endloop
  endfacet
  facet normal 0 0 -1
    outer loop
      vertex -0.9375 -1.6238 0
      vertex -0.9375 1.6238 0
      vertex -0.579407 1.78323 0
    endloop
  endfacet
  facet normal 0 0 -1
    outer loop
      vertex -1.25462 -1.3934 0
      vertex -0.9375 1.6238 0
      vertex -0.9375 -1.6238 0
    endloop
  endfacet
  facet normal 0 0 -1
    outer loop
      vertex -1.25462 -1.3934 0
      vertex -1.25462 1.3934 0
      vertex -0.9375 1.6238 0
    endloop
  endfacet
  facet normal 0 0 -1
    outer loop
      vertex -1.51691 -1.1021 0
      vertex -1.25462 1.3934 0
      vertex -1.25462 -1.3934 0
    endloop
  endfacet
  facet normal 0 0 -1
    outer loop
      vertex -1.51691 -1.1021 0
      vertex -1.51691 1.1021 0
      vertex -1.25462 1.3934 0
    endloop
  endfacet
  facet normal 0 0 -1
    outer loop
      vertex -1.7129 -0.762631 0
      vertex -1.51691 1.1021 0
      vertex -1.51691 -1.1021 0
    endloop
  endfacet
  facet normal 0 0 -1
    outer loop
      vertex -1.7129 -0.762631 0
      vertex -1.7129 0.762631 0
      vertex -1.51691 1.1021 0
    endloop
  endfacet
  facet normal 0 0 -1
    outer loop
      vertex -1.83403 -0.389834 0
      vertex -1.7129 0.762631 0
      vertex -1.7129 -0.762631 0
    endloop
  endfacet
  facet normal 0 0 -1
    outer loop
      vertex -1.83403 -0.389834 0
      vertex -1.83403 0.389834 0
      vertex -1.7129 0.762631 0
    endloop
  endfacet
  facet normal 0 -0 -1
    outer loop
      vertex -1.83403 0.389834 0
      vertex -1.83403 -0.389834 0
      vertex -1.875 1.06229e-15 0
    endloop
  endfacet
  facet normal 0 0 1
    outer loop
      vertex 1.83403 0.389834 10
      vertex 1.83403 -0.389834 10
      vertex 1.875 0 10
    endloop
  endfacet
  facet normal 0 0 1
    outer loop
      vertex 1.7129 0.762631 10
      vertex 1.83403 -0.389834 10
      vertex 1.83403 0.389834 10
    endloop
  endfacet
  facet normal 0 0 1
    outer loop
      vertex 1.7129 0.762631 10
      vertex 1.7129 -0.762631 10
      vertex 1.83403 -0.389834 10
    endloop
  endfacet
  facet normal 0 0 1
    outer loop
      vertex 1.51691 1.1021 10
      vertex 1.7129 -0.762631 10
      vertex 1.7129 0.762631 10
    endloop
  endfacet
  facet normal 0 0 1
    outer loop
      vertex 1.51691 1.1021 10
      vertex 1.51691 -1.1021 10
      vertex 1.7129 -0.762631 10
    endloop
  endfacet
  facet normal 0 0 1
    outer loop
      vertex 1.25462 1.3934 10
      vertex 1.51691 -1.1021 10
      vertex 1.51691 1.1021 10
    endloop
  endfacet
  facet normal 0 0 1
    outer loop
      vertex 1.25462 1.3934 10
      vertex 1.25462 -1.3934 10
      vertex 1.51691 -1.1021 10
    endloop
  endfacet
  facet normal 0 0 1
    outer loop
      vertex 0.9375 1.6238 10
      vertex 1.25462 -1.3934 10
      vertex 1.25462 1.3934 10
    endloop
  endfacet
  facet normal 0 0 1
    outer loop
      vertex 0.9375 1.6238 10
      vertex 0.9375 -1.6238 10
      vertex 1.25462 -1.3934 10
    endloop
  endfacet
  facet normal 0 0 1
    outer loop
      vertex 0.579407 1.78323 10
      vertex 0.9375 -1.6238 10
      vertex 0.9375 1.6238 10
    endloop
  endfacet
  facet normal 0 0 1
    outer loop
      vertex 0.579407 1.78323 10
      vertex 0.579407 -1.78323 10
      vertex 0.9375 -1.6238 10
    endloop
  endfacet
  facet normal 0 0 1
    outer loop
      vertex 0.195991 1.86473 10
      vertex 0.579407 -1.78323 10
      vertex 0.579407 1.78323 10
    endloop
  endfacet
  facet normal 0 0 1
    outer loop
      vertex 0.195991 1.86473 10
      vertex 0.195991 -1.86473 10
      vertex 0.579407 -1.78323 10
    endloop
  endfacet
  facet normal -0 0 1
    outer loop
      vertex -0.195991 1.86473 10
      vertex 0.195991 -1.86473 10
      vertex 0.195991 1.86473 10
    endloop
  endfacet
  facet normal 0 0 1
    outer loop
      vertex -0.195991 1.86473 10
      vertex -0.195991 -1.86473 10
      vertex 0.195991 -1.86473 10
    endloop
  endfacet
  facet normal -0 0 1
    outer loop
      vertex -0.579407 1.78323 10
      vertex -0.195991 -1.86473 10
      vertex -0.195991 1.86473 10
    endloop
  endfacet
  facet normal 0 0 1
    outer loop
      vertex -0.579407 1.78323 10
      vertex -0.579407 -1.78323 10
      vertex -0.195991 -1.86473 10
    endloop
  endfacet
  facet normal -0 0 1
    outer loop
      vertex -0.9375 1.6238 10
      vertex -0.579407 -1.78323 10
      vertex -0.579407 1.78323 10
    endloop
  endfacet
  facet normal 0 0 1
    outer loop
      vertex -0.9375 1.6238 10
      vertex -0.9375 -1.6238 10
      vertex -0.579407 -1.78323 10
    endloop
  endfacet
  facet normal -0 0 1
    outer loop
      vertex -1.25462 1.3934 10
      vertex -0.9375 -1.6238 10
      vertex -0.9375 1.6238 10
    endloop
  endfacet
  facet normal 0 0 1
    outer loop
      vertex -1.25462 1.3934 10
      vertex -1.25462 -1.3934 10
      vertex -0.9375 -1.6238 10
    endloop
  endfacet
  facet normal -0 0 1
    outer loop
      vertex -1.51691 1.1021 10
      vertex -1.25462 -1.3934 10
      vertex -1.25462 1.3934 10
    endloop
  endfacet
  facet normal 0 0 1
    outer loop
      vertex -1.51691 1.1021 10
      vertex -1.51691 -1.1021 10
      vertex -1.25462 -1.3934 10
    endloop
  endfacet
  facet normal -0 0 1
    outer loop
      vertex -1.7129 0.762631 10
      vertex -1.51691 -1.1021 10
      vertex -1.51691 1.1021 10
    endloop
  endfacet
  facet normal 0 0 1
    outer loop
      vertex -1.7129 0.762631 10
      vertex -1.7129 -0.762631 10
      vertex -1.51691 -1.1021 10
    endloop
  endfacet
  facet normal -0 0 1
    outer loop
      vertex -1.83403 0.389834 10
      vertex -1.7129 -0.762631 10
      vertex -1.7129 0.762631 10
    endloop
  endfacet
  facet normal 0 0 1
    outer loop
      vertex -1.83403 0.389834 10
      vertex -1.83403 -0.389834 10
      vertex -1.7129 -0.762631 10
    endloop
  endfacet
  facet normal 0 -0 1
    outer loop
      vertex -1.83403 -0.389834 10
      vertex -1.83403 0.389834 10
      vertex -1.875 1.06229e-15 10
    endloop
  endfacet
endsolid OpenSCAD_Model
