solid OpenSCAD_Model
  facet normal 1 -0 0
    outer loop
      vertex 9.8 9.8 2.81
      vertex 9.8 32.8 0.809999
      vertex 9.8 32.8 2.81
    endloop
  endfacet
  facet normal 1 0 0
    outer loop
      vertex 9.8 32.8 0.809999
      vertex 9.8 9.8 2.81
      vertex 9.8 9.8 0.809999
    endloop
  endfacet
  facet normal -1 0 0
    outer loop
      vertex 32.8 9.8 0.809999
      vertex 32.8 32.8 2.81
      vertex 32.8 32.8 0.809999
    endloop
  endfacet
  facet normal -1 -0 0
    outer loop
      vertex 32.8 32.8 2.81
      vertex 32.8 9.8 0.809999
      vertex 32.8 9.8 2.81
    endloop
  endfacet
  facet normal -0 0 1
    outer loop
      vertex 9.8 32.8 0.809999
      vertex 32.8 9.8 0.809999
      vertex 32.8 32.8 0.809999
    endloop
  endfacet
  facet normal 0 0 1
    outer loop
      vertex 32.8 9.8 0.809999
      vertex 9.8 32.8 0.809999
      vertex 9.8 9.8 0.809999
    endloop
  endfacet
  facet normal 0 1 -0
    outer loop
      vertex 32.8 9.8 0.809999
      vertex 9.8 9.8 2.81
      vertex 32.8 9.8 2.81
    endloop
  endfacet
  facet normal 0 1 0
    outer loop
      vertex 9.8 9.8 2.81
      vertex 32.8 9.8 0.809999
      vertex 9.8 9.8 0.809999
    endloop
  endfacet
  facet normal 0 -1 0
    outer loop
      vertex 9.8 32.8 0.809999
      vertex 32.8 32.8 2.81
      vertex 9.8 32.8 2.81
    endloop
  endfacet
  facet normal 0 -1 -0
    outer loop
      vertex 32.8 32.8 2.81
      vertex 9.8 32.8 0.809999
      vertex 32.8 32.8 0.809999
    endloop
  endfacet
  facet normal 1 -0 0
    outer loop
      vertex 9.8 35.6 2.81
      vertex 9.8 58.6 0.809999
      vertex 9.8 58.6 2.81
    endloop
  endfacet
  facet normal 1 0 0
    outer loop
      vertex 9.8 58.6 0.809999
      vertex 9.8 35.6 2.81
      vertex 9.8 35.6 0.809999
    endloop
  endfacet
  facet normal -1 0 0
    outer loop
      vertex 32.8 35.6 0.809999
      vertex 32.8 58.6 2.81
      vertex 32.8 58.6 0.809999
    endloop
  endfacet
  facet normal -1 -0 0
    outer loop
      vertex 32.8 58.6 2.81
      vertex 32.8 35.6 0.809999
      vertex 32.8 35.6 2.81
    endloop
  endfacet
  facet normal 0 -1 0
    outer loop
      vertex 9.8 58.6 0.809999
      vertex 32.8 58.6 2.81
      vertex 9.8 58.6 2.81
    endloop
  endfacet
  facet normal 0 -1 -0
    outer loop
      vertex 32.8 58.6 2.81
      vertex 9.8 58.6 0.809999
      vertex 32.8 58.6 0.809999
    endloop
  endfacet
  facet normal -0 0 1
    outer loop
      vertex 9.8 58.6 0.809999
      vertex 32.8 35.6 0.809999
      vertex 32.8 58.6 0.809999
    endloop
  endfacet
  facet normal 0 0 1
    outer loop
      vertex 32.8 35.6 0.809999
      vertex 9.8 58.6 0.809999
      vertex 9.8 35.6 0.809999
    endloop
  endfacet
  facet normal 0 1 -0
    outer loop
      vertex 32.8 35.6 0.809999
      vertex 9.8 35.6 2.81
      vertex 32.8 35.6 2.81
    endloop
  endfacet
  facet normal 0 1 0
    outer loop
      vertex 9.8 35.6 2.81
      vertex 32.8 35.6 0.809999
      vertex 9.8 35.6 0.809999
    endloop
  endfacet
  facet normal 1 -0 0
    outer loop
      vertex 9.8 61.4 2.81
      vertex 9.8 84.4 0.809999
      vertex 9.8 84.4 2.81
    endloop
  endfacet
  facet normal 1 0 0
    outer loop
      vertex 9.8 84.4 0.809999
      vertex 9.8 61.4 2.81
      vertex 9.8 61.4 0.809999
    endloop
  endfacet
  facet normal -1 0 0
    outer loop
      vertex 32.8 61.4 0.809999
      vertex 32.8 84.4 2.81
      vertex 32.8 84.4 0.809999
    endloop
  endfacet
  facet normal -1 -0 0
    outer loop
      vertex 32.8 84.4 2.81
      vertex 32.8 61.4 0.809999
      vertex 32.8 61.4 2.81
    endloop
  endfacet
  facet normal -0 0 1
    outer loop
      vertex 9.8 84.4 0.809999
      vertex 32.8 61.4 0.809999
      vertex 32.8 84.4 0.809999
    endloop
  endfacet
  facet normal 0 0 1
    outer loop
      vertex 32.8 61.4 0.809999
      vertex 9.8 84.4 0.809999
      vertex 9.8 61.4 0.809999
    endloop
  endfacet
  facet normal 0 1 -0
    outer loop
      vertex 32.8 61.4 0.809999
      vertex 9.8 61.4 2.81
      vertex 32.8 61.4 2.81
    endloop
  endfacet
  facet normal 0 1 0
    outer loop
      vertex 9.8 61.4 2.81
      vertex 32.8 61.4 0.809999
      vertex 9.8 61.4 0.809999
    endloop
  endfacet
  facet normal 0 -1 0
    outer loop
      vertex 9.8 84.4 0.809999
      vertex 32.8 84.4 2.81
      vertex 9.8 84.4 2.81
    endloop
  endfacet
  facet normal 0 -1 -0
    outer loop
      vertex 32.8 84.4 2.81
      vertex 9.8 84.4 0.809999
      vertex 32.8 84.4 0.809999
    endloop
  endfacet
  facet normal 1 -0 0
    outer loop
      vertex 9.8 87.2 2.81
      vertex 9.8 110.2 0.809999
      vertex 9.8 110.2 2.81
    endloop
  endfacet
  facet normal 1 0 0
    outer loop
      vertex 9.8 110.2 0.809999
      vertex 9.8 87.2 2.81
      vertex 9.8 87.2 0.809999
    endloop
  endfacet
  facet normal -1 0 0
    outer loop
      vertex 32.8 87.2 0.809999
      vertex 32.8 110.2 2.81
      vertex 32.8 110.2 0.809999
    endloop
  endfacet
  facet normal -1 -0 0
    outer loop
      vertex 32.8 110.2 2.81
      vertex 32.8 87.2 0.809999
      vertex 32.8 87.2 2.81
    endloop
  endfacet
  facet normal 0 -1 0
    outer loop
      vertex 9.8 110.2 0.809999
      vertex 32.8 110.2 2.81
      vertex 9.8 110.2 2.81
    endloop
  endfacet
  facet normal 0 -1 -0
    outer loop
      vertex 32.8 110.2 2.81
      vertex 9.8 110.2 0.809999
      vertex 32.8 110.2 0.809999
    endloop
  endfacet
  facet normal -0 0 1
    outer loop
      vertex 9.8 110.2 0.809999
      vertex 32.8 87.2 0.809999
      vertex 32.8 110.2 0.809999
    endloop
  endfacet
  facet normal 0 0 1
    outer loop
      vertex 32.8 87.2 0.809999
      vertex 9.8 110.2 0.809999
      vertex 9.8 87.2 0.809999
    endloop
  endfacet
  facet normal 0 1 -0
    outer loop
      vertex 32.8 87.2 0.809999
      vertex 9.8 87.2 2.81
      vertex 32.8 87.2 2.81
    endloop
  endfacet
  facet normal 0 1 0
    outer loop
      vertex 9.8 87.2 2.81
      vertex 32.8 87.2 0.809999
      vertex 9.8 87.2 0.809999
    endloop
  endfacet
  facet normal 1 -0 0
    outer loop
      vertex 35.6 9.8 2.81
      vertex 35.6 26.3 0.809999
      vertex 35.6 26.3 2.81
    endloop
  endfacet
  facet normal 1 0 0
    outer loop
      vertex 35.6 26.3 0.809999
      vertex 35.6 9.8 2.81
      vertex 35.6 9.8 0.809999
    endloop
  endfacet
  facet normal -1 0 0
    outer loop
      vertex 52.1 9.8 0.809999
      vertex 52.1 26.3 2.81
      vertex 52.1 26.3 0.809999
    endloop
  endfacet
  facet normal -1 -0 0
    outer loop
      vertex 52.1 26.3 2.81
      vertex 52.1 9.8 0.809999
      vertex 52.1 9.8 2.81
    endloop
  endfacet
  facet normal 0 -1 0
    outer loop
      vertex 35.6 26.3 0.809999
      vertex 52.1 26.3 2.81
      vertex 35.6 26.3 2.81
    endloop
  endfacet
  facet normal 0 -1 -0
    outer loop
      vertex 52.1 26.3 2.81
      vertex 35.6 26.3 0.809999
      vertex 52.1 26.3 0.809999
    endloop
  endfacet
  facet normal -0 0 1
    outer loop
      vertex 35.6 26.3 0.809999
      vertex 52.1 9.8 0.809999
      vertex 52.1 26.3 0.809999
    endloop
  endfacet
  facet normal 0 0 1
    outer loop
      vertex 52.1 9.8 0.809999
      vertex 35.6 26.3 0.809999
      vertex 35.6 9.8 0.809999
    endloop
  endfacet
  facet normal 0 1 -0
    outer loop
      vertex 52.1 9.8 0.809999
      vertex 35.6 9.8 2.81
      vertex 52.1 9.8 2.81
    endloop
  endfacet
  facet normal 0 1 0
    outer loop
      vertex 35.6 9.8 2.81
      vertex 52.1 9.8 0.809999
      vertex 35.6 9.8 0.809999
    endloop
  endfacet
  facet normal 1 -0 0
    outer loop
      vertex 35.6 29.1 2.81
      vertex 35.6 45.6 0.809999
      vertex 35.6 45.6 2.81
    endloop
  endfacet
  facet normal 1 0 0
    outer loop
      vertex 35.6 45.6 0.809999
      vertex 35.6 29.1 2.81
      vertex 35.6 29.1 0.809999
    endloop
  endfacet
  facet normal -1 0 0
    outer loop
      vertex 52.1 29.1 0.809999
      vertex 52.1 45.6 2.81
      vertex 52.1 45.6 0.809999
    endloop
  endfacet
  facet normal -1 -0 0
    outer loop
      vertex 52.1 45.6 2.81
      vertex 52.1 29.1 0.809999
      vertex 52.1 29.1 2.81
    endloop
  endfacet
  facet normal -0 0 1
    outer loop
      vertex 35.6 45.6 0.809999
      vertex 52.1 29.1 0.809999
      vertex 52.1 45.6 0.809999
    endloop
  endfacet
  facet normal 0 0 1
    outer loop
      vertex 52.1 29.1 0.809999
      vertex 35.6 45.6 0.809999
      vertex 35.6 29.1 0.809999
    endloop
  endfacet
  facet normal 0 1 -0
    outer loop
      vertex 52.1 29.1 0.809999
      vertex 35.6 29.1 2.81
      vertex 52.1 29.1 2.81
    endloop
  endfacet
  facet normal 0 1 0
    outer loop
      vertex 35.6 29.1 2.81
      vertex 52.1 29.1 0.809999
      vertex 35.6 29.1 0.809999
    endloop
  endfacet
  facet normal 0 -1 0
    outer loop
      vertex 35.6 45.6 0.809999
      vertex 52.1 45.6 2.81
      vertex 35.6 45.6 2.81
    endloop
  endfacet
  facet normal 0 -1 -0
    outer loop
      vertex 52.1 45.6 2.81
      vertex 35.6 45.6 0.809999
      vertex 52.1 45.6 0.809999
    endloop
  endfacet
  facet normal 1 -0 0
    outer loop
      vertex 35.6 48.4 2.81
      vertex 35.6 64.9 0.809999
      vertex 35.6 64.9 2.81
    endloop
  endfacet
  facet normal 1 0 0
    outer loop
      vertex 35.6 64.9 0.809999
      vertex 35.6 48.4 2.81
      vertex 35.6 48.4 0.809999
    endloop
  endfacet
  facet normal -1 0 0
    outer loop
      vertex 52.1 48.4 0.809999
      vertex 52.1 64.9 2.81
      vertex 52.1 64.9 0.809999
    endloop
  endfacet
  facet normal -1 -0 0
    outer loop
      vertex 52.1 64.9 2.81
      vertex 52.1 48.4 0.809999
      vertex 52.1 48.4 2.81
    endloop
  endfacet
  facet normal -0 0 1
    outer loop
      vertex 35.6 64.9 0.809999
      vertex 52.1 48.4 0.809999
      vertex 52.1 64.9 0.809999
    endloop
  endfacet
  facet normal 0 0 1
    outer loop
      vertex 52.1 48.4 0.809999
      vertex 35.6 64.9 0.809999
      vertex 35.6 48.4 0.809999
    endloop
  endfacet
  facet normal 0 1 -0
    outer loop
      vertex 52.1 48.4 0.809999
      vertex 35.6 48.4 2.81
      vertex 52.1 48.4 2.81
    endloop
  endfacet
  facet normal 0 1 0
    outer loop
      vertex 35.6 48.4 2.81
      vertex 52.1 48.4 0.809999
      vertex 35.6 48.4 0.809999
    endloop
  endfacet
  facet normal 0 -1 0
    outer loop
      vertex 35.6 64.9 0.809999
      vertex 52.1 64.9 2.81
      vertex 35.6 64.9 2.81
    endloop
  endfacet
  facet normal 0 -1 -0
    outer loop
      vertex 52.1 64.9 2.81
      vertex 35.6 64.9 0.809999
      vertex 52.1 64.9 0.809999
    endloop
  endfacet
  facet normal 1 -0 0
    outer loop
      vertex 35.6 67.7 2.81
      vertex 35.6 84.2 0.809999
      vertex 35.6 84.2 2.81
    endloop
  endfacet
  facet normal 1 0 0
    outer loop
      vertex 35.6 84.2 0.809999
      vertex 35.6 67.7 2.81
      vertex 35.6 67.7 0.809999
    endloop
  endfacet
  facet normal -1 0 0
    outer loop
      vertex 52.1 67.7 0.809999
      vertex 52.1 84.2 2.81
      vertex 52.1 84.2 0.809999
    endloop
  endfacet
  facet normal -1 -0 0
    outer loop
      vertex 52.1 84.2 2.81
      vertex 52.1 67.7 0.809999
      vertex 52.1 67.7 2.81
    endloop
  endfacet
  facet normal -0 0 1
    outer loop
      vertex 35.6 84.2 0.809999
      vertex 52.1 67.7 0.809999
      vertex 52.1 84.2 0.809999
    endloop
  endfacet
  facet normal 0 0 1
    outer loop
      vertex 52.1 67.7 0.809999
      vertex 35.6 84.2 0.809999
      vertex 35.6 67.7 0.809999
    endloop
  endfacet
  facet normal 0 1 -0
    outer loop
      vertex 52.1 67.7 0.809999
      vertex 35.6 67.7 2.81
      vertex 52.1 67.7 2.81
    endloop
  endfacet
  facet normal 0 1 0
    outer loop
      vertex 35.6 67.7 2.81
      vertex 52.1 67.7 0.809999
      vertex 35.6 67.7 0.809999
    endloop
  endfacet
  facet normal 0 -1 0
    outer loop
      vertex 35.6 84.2 0.809999
      vertex 52.1 84.2 2.81
      vertex 35.6 84.2 2.81
    endloop
  endfacet
  facet normal 0 -1 -0
    outer loop
      vertex 52.1 84.2 2.81
      vertex 35.6 84.2 0.809999
      vertex 52.1 84.2 0.809999
    endloop
  endfacet
  facet normal 1 -0 0
    outer loop
      vertex 35.6 87 2.81
      vertex 35.6 110 0.809999
      vertex 35.6 110 2.81
    endloop
  endfacet
  facet normal 1 0 0
    outer loop
      vertex 35.6 110 0.809999
      vertex 35.6 87 2.81
      vertex 35.6 87 0.809999
    endloop
  endfacet
  facet normal -1 0 0
    outer loop
      vertex 52.1 87 0.809999
      vertex 52.1 110 2.81
      vertex 52.1 110 0.809999
    endloop
  endfacet
  facet normal -1 -0 0
    outer loop
      vertex 52.1 110 2.81
      vertex 52.1 87 0.809999
      vertex 52.1 87 2.81
    endloop
  endfacet
  facet normal -0 0 1
    outer loop
      vertex 35.6 110 0.809999
      vertex 52.1 87 0.809999
      vertex 52.1 110 0.809999
    endloop
  endfacet
  facet normal 0 0 1
    outer loop
      vertex 52.1 87 0.809999
      vertex 35.6 110 0.809999
      vertex 35.6 87 0.809999
    endloop
  endfacet
  facet normal 0 1 -0
    outer loop
      vertex 52.1 87 0.809999
      vertex 35.6 87 2.81
      vertex 52.1 87 2.81
    endloop
  endfacet
  facet normal 0 1 0
    outer loop
      vertex 35.6 87 2.81
      vertex 52.1 87 0.809999
      vertex 35.6 87 0.809999
    endloop
  endfacet
  facet normal 0 -1 0
    outer loop
      vertex 35.6 110 0.809999
      vertex 52.1 110 2.81
      vertex 35.6 110 2.81
    endloop
  endfacet
  facet normal 0 -1 -0
    outer loop
      vertex 52.1 110 2.81
      vertex 35.6 110 0.809999
      vertex 52.1 110 0.809999
    endloop
  endfacet
  facet normal 1 -0 0
    outer loop
      vertex 54.9 9.8 2.81
      vertex 54.9 30.8 0.809999
      vertex 54.9 30.8 2.81
    endloop
  endfacet
  facet normal 1 0 0
    outer loop
      vertex 54.9 30.8 0.809999
      vertex 54.9 9.8 2.81
      vertex 54.9 9.8 0.809999
    endloop
  endfacet
  facet normal -1 0 0
    outer loop
      vertex 69.9 9.8 0.809999
      vertex 69.9 30.8 2.81
      vertex 69.9 30.8 0.809999
    endloop
  endfacet
  facet normal -1 -0 0
    outer loop
      vertex 69.9 30.8 2.81
      vertex 69.9 9.8 0.809999
      vertex 69.9 9.8 2.81
    endloop
  endfacet
  facet normal 0 -1 0
    outer loop
      vertex 54.9 30.8 0.809999
      vertex 69.9 30.8 2.81
      vertex 54.9 30.8 2.81
    endloop
  endfacet
  facet normal 0 -1 -0
    outer loop
      vertex 69.9 30.8 2.81
      vertex 54.9 30.8 0.809999
      vertex 69.9 30.8 0.809999
    endloop
  endfacet
  facet normal -0 0 1
    outer loop
      vertex 54.9 30.8 0.809999
      vertex 69.9 9.8 0.809999
      vertex 69.9 30.8 0.809999
    endloop
  endfacet
  facet normal 0 0 1
    outer loop
      vertex 69.9 9.8 0.809999
      vertex 54.9 30.8 0.809999
      vertex 54.9 9.8 0.809999
    endloop
  endfacet
  facet normal 0 1 -0
    outer loop
      vertex 69.9 9.8 0.809999
      vertex 54.9 9.8 2.81
      vertex 69.9 9.8 2.81
    endloop
  endfacet
  facet normal 0 1 0
    outer loop
      vertex 54.9 9.8 2.81
      vertex 69.9 9.8 0.809999
      vertex 54.9 9.8 0.809999
    endloop
  endfacet
  facet normal 1 -0 0
    outer loop
      vertex 54.9 33.6 2.81
      vertex 54.9 54.6 0.809999
      vertex 54.9 54.6 2.81
    endloop
  endfacet
  facet normal 1 0 0
    outer loop
      vertex 54.9 54.6 0.809999
      vertex 54.9 33.6 2.81
      vertex 54.9 33.6 0.809999
    endloop
  endfacet
  facet normal -1 0 0
    outer loop
      vertex 69.9 33.6 0.809999
      vertex 69.9 54.6 2.81
      vertex 69.9 54.6 0.809999
    endloop
  endfacet
  facet normal -1 -0 0
    outer loop
      vertex 69.9 54.6 2.81
      vertex 69.9 33.6 0.809999
      vertex 69.9 33.6 2.81
    endloop
  endfacet
  facet normal -0 0 1
    outer loop
      vertex 54.9 54.6 0.809999
      vertex 69.9 33.6 0.809999
      vertex 69.9 54.6 0.809999
    endloop
  endfacet
  facet normal 0 0 1
    outer loop
      vertex 69.9 33.6 0.809999
      vertex 54.9 54.6 0.809999
      vertex 54.9 33.6 0.809999
    endloop
  endfacet
  facet normal 0 1 -0
    outer loop
      vertex 69.9 33.6 0.809999
      vertex 54.9 33.6 2.81
      vertex 69.9 33.6 2.81
    endloop
  endfacet
  facet normal 0 1 0
    outer loop
      vertex 54.9 33.6 2.81
      vertex 69.9 33.6 0.809999
      vertex 54.9 33.6 0.809999
    endloop
  endfacet
  facet normal 0 -1 0
    outer loop
      vertex 54.9 54.6 0.809999
      vertex 69.9 54.6 2.81
      vertex 54.9 54.6 2.81
    endloop
  endfacet
  facet normal 0 -1 -0
    outer loop
      vertex 69.9 54.6 2.81
      vertex 54.9 54.6 0.809999
      vertex 69.9 54.6 0.809999
    endloop
  endfacet
  facet normal 1 -0 0
    outer loop
      vertex 54.9 57.4 2.81
      vertex 54.9 78.4 0.809999
      vertex 54.9 78.4 2.81
    endloop
  endfacet
  facet normal 1 0 0
    outer loop
      vertex 54.9 78.4 0.809999
      vertex 54.9 57.4 2.81
      vertex 54.9 57.4 0.809999
    endloop
  endfacet
  facet normal -1 0 0
    outer loop
      vertex 69.9 57.4 0.809999
      vertex 69.9 78.4 2.81
      vertex 69.9 78.4 0.809999
    endloop
  endfacet
  facet normal -1 -0 0
    outer loop
      vertex 69.9 78.4 2.81
      vertex 69.9 57.4 0.809999
      vertex 69.9 57.4 2.81
    endloop
  endfacet
  facet normal 0 -1 0
    outer loop
      vertex 54.9 78.4 0.809999
      vertex 69.9 78.4 2.81
      vertex 54.9 78.4 2.81
    endloop
  endfacet
  facet normal 0 -1 -0
    outer loop
      vertex 69.9 78.4 2.81
      vertex 54.9 78.4 0.809999
      vertex 69.9 78.4 0.809999
    endloop
  endfacet
  facet normal -0 0 1
    outer loop
      vertex 54.9 78.4 0.809999
      vertex 69.9 57.4 0.809999
      vertex 69.9 78.4 0.809999
    endloop
  endfacet
  facet normal 0 0 1
    outer loop
      vertex 69.9 57.4 0.809999
      vertex 54.9 78.4 0.809999
      vertex 54.9 57.4 0.809999
    endloop
  endfacet
  facet normal 0 1 -0
    outer loop
      vertex 69.9 57.4 0.809999
      vertex 54.9 57.4 2.81
      vertex 69.9 57.4 2.81
    endloop
  endfacet
  facet normal 0 1 0
    outer loop
      vertex 54.9 57.4 2.81
      vertex 69.9 57.4 0.809999
      vertex 54.9 57.4 0.809999
    endloop
  endfacet
  facet normal 1 -0 0
    outer loop
      vertex 54.9 81.2 2.81
      vertex 54.9 102.2 0.809999
      vertex 54.9 102.2 2.81
    endloop
  endfacet
  facet normal 1 0 0
    outer loop
      vertex 54.9 102.2 0.809999
      vertex 54.9 81.2 2.81
      vertex 54.9 81.2 0.809999
    endloop
  endfacet
  facet normal -1 0 0
    outer loop
      vertex 69.9 81.2 0.809999
      vertex 69.9 102.2 2.81
      vertex 69.9 102.2 0.809999
    endloop
  endfacet
  facet normal -1 -0 0
    outer loop
      vertex 69.9 102.2 2.81
      vertex 69.9 81.2 0.809999
      vertex 69.9 81.2 2.81
    endloop
  endfacet
  facet normal 0 -1 0
    outer loop
      vertex 54.9 102.2 0.809999
      vertex 69.9 102.2 2.81
      vertex 54.9 102.2 2.81
    endloop
  endfacet
  facet normal 0 -1 -0
    outer loop
      vertex 69.9 102.2 2.81
      vertex 54.9 102.2 0.809999
      vertex 69.9 102.2 0.809999
    endloop
  endfacet
  facet normal -0 0 1
    outer loop
      vertex 54.9 102.2 0.809999
      vertex 69.9 81.2 0.809999
      vertex 69.9 102.2 0.809999
    endloop
  endfacet
  facet normal 0 0 1
    outer loop
      vertex 69.9 81.2 0.809999
      vertex 54.9 102.2 0.809999
      vertex 54.9 81.2 0.809999
    endloop
  endfacet
  facet normal 0 1 -0
    outer loop
      vertex 69.9 81.2 0.809999
      vertex 54.9 81.2 2.81
      vertex 69.9 81.2 2.81
    endloop
  endfacet
  facet normal 0 1 0
    outer loop
      vertex 54.9 81.2 2.81
      vertex 69.9 81.2 0.809999
      vertex 54.9 81.2 0.809999
    endloop
  endfacet
  facet normal 1 -0 0
    outer loop
      vertex 72.7 9.8 2.81
      vertex 72.7 30.8 0.809999
      vertex 72.7 30.8 2.81
    endloop
  endfacet
  facet normal 1 0 0
    outer loop
      vertex 72.7 30.8 0.809999
      vertex 72.7 9.8 2.81
      vertex 72.7 9.8 0.809999
    endloop
  endfacet
  facet normal -1 0 0
    outer loop
      vertex 87.7 9.8 0.809999
      vertex 87.7 30.8 2.81
      vertex 87.7 30.8 0.809999
    endloop
  endfacet
  facet normal -1 -0 0
    outer loop
      vertex 87.7 30.8 2.81
      vertex 87.7 9.8 0.809999
      vertex 87.7 9.8 2.81
    endloop
  endfacet
  facet normal 0 -1 0
    outer loop
      vertex 72.7 30.8 0.809999
      vertex 87.7 30.8 2.81
      vertex 72.7 30.8 2.81
    endloop
  endfacet
  facet normal 0 -1 -0
    outer loop
      vertex 87.7 30.8 2.81
      vertex 72.7 30.8 0.809999
      vertex 87.7 30.8 0.809999
    endloop
  endfacet
  facet normal -0 0 1
    outer loop
      vertex 72.7 30.8 0.809999
      vertex 87.7 9.8 0.809999
      vertex 87.7 30.8 0.809999
    endloop
  endfacet
  facet normal 0 0 1
    outer loop
      vertex 87.7 9.8 0.809999
      vertex 72.7 30.8 0.809999
      vertex 72.7 9.8 0.809999
    endloop
  endfacet
  facet normal 0 1 -0
    outer loop
      vertex 87.7 9.8 0.809999
      vertex 72.7 9.8 2.81
      vertex 87.7 9.8 2.81
    endloop
  endfacet
  facet normal 0 1 0
    outer loop
      vertex 72.7 9.8 2.81
      vertex 87.7 9.8 0.809999
      vertex 72.7 9.8 0.809999
    endloop
  endfacet
  facet normal 1 -0 0
    outer loop
      vertex 72.7 33.6 2.81
      vertex 72.7 54.6 0.809999
      vertex 72.7 54.6 2.81
    endloop
  endfacet
  facet normal 1 0 0
    outer loop
      vertex 72.7 54.6 0.809999
      vertex 72.7 33.6 2.81
      vertex 72.7 33.6 0.809999
    endloop
  endfacet
  facet normal -1 0 0
    outer loop
      vertex 87.7 33.6 0.809999
      vertex 87.7 54.6 2.81
      vertex 87.7 54.6 0.809999
    endloop
  endfacet
  facet normal -1 -0 0
    outer loop
      vertex 87.7 54.6 2.81
      vertex 87.7 33.6 0.809999
      vertex 87.7 33.6 2.81
    endloop
  endfacet
  facet normal -0 0 1
    outer loop
      vertex 72.7 54.6 0.809999
      vertex 87.7 33.6 0.809999
      vertex 87.7 54.6 0.809999
    endloop
  endfacet
  facet normal 0 0 1
    outer loop
      vertex 87.7 33.6 0.809999
      vertex 72.7 54.6 0.809999
      vertex 72.7 33.6 0.809999
    endloop
  endfacet
  facet normal 0 1 -0
    outer loop
      vertex 87.7 33.6 0.809999
      vertex 72.7 33.6 2.81
      vertex 87.7 33.6 2.81
    endloop
  endfacet
  facet normal 0 1 0
    outer loop
      vertex 72.7 33.6 2.81
      vertex 87.7 33.6 0.809999
      vertex 72.7 33.6 0.809999
    endloop
  endfacet
  facet normal 0 -1 0
    outer loop
      vertex 72.7 54.6 0.809999
      vertex 87.7 54.6 2.81
      vertex 72.7 54.6 2.81
    endloop
  endfacet
  facet normal 0 -1 -0
    outer loop
      vertex 87.7 54.6 2.81
      vertex 72.7 54.6 0.809999
      vertex 87.7 54.6 0.809999
    endloop
  endfacet
  facet normal 1 -0 0
    outer loop
      vertex 72.7 57.4 2.81
      vertex 72.7 78.4 0.809999
      vertex 72.7 78.4 2.81
    endloop
  endfacet
  facet normal 1 0 0
    outer loop
      vertex 72.7 78.4 0.809999
      vertex 72.7 57.4 2.81
      vertex 72.7 57.4 0.809999
    endloop
  endfacet
  facet normal -1 0 0
    outer loop
      vertex 87.7 57.4 0.809999
      vertex 87.7 78.4 2.81
      vertex 87.7 78.4 0.809999
    endloop
  endfacet
  facet normal -1 -0 0
    outer loop
      vertex 87.7 78.4 2.81
      vertex 87.7 57.4 0.809999
      vertex 87.7 57.4 2.81
    endloop
  endfacet
  facet normal 0 -1 0
    outer loop
      vertex 72.7 78.4 0.809999
      vertex 87.7 78.4 2.81
      vertex 72.7 78.4 2.81
    endloop
  endfacet
  facet normal 0 -1 -0
    outer loop
      vertex 87.7 78.4 2.81
      vertex 72.7 78.4 0.809999
      vertex 87.7 78.4 0.809999
    endloop
  endfacet
  facet normal -0 0 1
    outer loop
      vertex 72.7 78.4 0.809999
      vertex 87.7 57.4 0.809999
      vertex 87.7 78.4 0.809999
    endloop
  endfacet
  facet normal 0 0 1
    outer loop
      vertex 87.7 57.4 0.809999
      vertex 72.7 78.4 0.809999
      vertex 72.7 57.4 0.809999
    endloop
  endfacet
  facet normal 0 1 -0
    outer loop
      vertex 87.7 57.4 0.809999
      vertex 72.7 57.4 2.81
      vertex 87.7 57.4 2.81
    endloop
  endfacet
  facet normal 0 1 0
    outer loop
      vertex 72.7 57.4 2.81
      vertex 87.7 57.4 0.809999
      vertex 72.7 57.4 0.809999
    endloop
  endfacet
  facet normal 1 -0 0
    outer loop
      vertex 72.7 81.2 2.81
      vertex 72.7 102.2 0.809999
      vertex 72.7 102.2 2.81
    endloop
  endfacet
  facet normal 1 0 0
    outer loop
      vertex 72.7 102.2 0.809999
      vertex 72.7 81.2 2.81
      vertex 72.7 81.2 0.809999
    endloop
  endfacet
  facet normal -1 0 0
    outer loop
      vertex 87.7 81.2 0.809999
      vertex 87.7 102.2 2.81
      vertex 87.7 102.2 0.809999
    endloop
  endfacet
  facet normal -1 -0 0
    outer loop
      vertex 87.7 102.2 2.81
      vertex 87.7 81.2 0.809999
      vertex 87.7 81.2 2.81
    endloop
  endfacet
  facet normal 0 -1 0
    outer loop
      vertex 72.7 102.2 0.809999
      vertex 87.7 102.2 2.81
      vertex 72.7 102.2 2.81
    endloop
  endfacet
  facet normal 0 -1 -0
    outer loop
      vertex 87.7 102.2 2.81
      vertex 72.7 102.2 0.809999
      vertex 87.7 102.2 0.809999
    endloop
  endfacet
  facet normal -0 0 1
    outer loop
      vertex 72.7 102.2 0.809999
      vertex 87.7 81.2 0.809999
      vertex 87.7 102.2 0.809999
    endloop
  endfacet
  facet normal 0 0 1
    outer loop
      vertex 87.7 81.2 0.809999
      vertex 72.7 102.2 0.809999
      vertex 72.7 81.2 0.809999
    endloop
  endfacet
  facet normal 0 1 -0
    outer loop
      vertex 87.7 81.2 0.809999
      vertex 72.7 81.2 2.81
      vertex 87.7 81.2 2.81
    endloop
  endfacet
  facet normal 0 1 0
    outer loop
      vertex 72.7 81.2 2.81
      vertex 87.7 81.2 0.809999
      vertex 72.7 81.2 0.809999
    endloop
  endfacet
  facet normal -1 0 0
    outer loop
      vertex 0 0 0
      vertex 0 120 22
      vertex 0 120 0
    endloop
  endfacet
  facet normal -1 -0 0
    outer loop
      vertex 0 120 22
      vertex 0 0 0
      vertex 0 0 22
    endloop
  endfacet
  facet normal 0 0 1
    outer loop
      vertex 96.71 0.809999 22
      vertex 97.5 120 22
      vertex 96.71 119.21 22
    endloop
  endfacet
  facet normal 0 0 1
    outer loop
      vertex 97.5 120 22
      vertex 0.809999 119.21 22
      vertex 96.71 119.21 22
    endloop
  endfacet
  facet normal 0 0 1
    outer loop
      vertex 0.809999 119.21 22
      vertex 0 120 22
      vertex 0.809999 0.809999 22
    endloop
  endfacet
  facet normal -0 0 1
    outer loop
      vertex 0 120 22
      vertex 0.809999 119.21 22
      vertex 97.5 120 22
    endloop
  endfacet
  facet normal 0 0 1
    outer loop
      vertex 97.5 120 22
      vertex 96.71 0.809999 22
      vertex 97.5 0 22
    endloop
  endfacet
  facet normal -0 0 1
    outer loop
      vertex 0.809999 0.809999 22
      vertex 97.5 0 22
      vertex 96.71 0.809999 22
    endloop
  endfacet
  facet normal 0 0 1
    outer loop
      vertex 0.809999 0.809999 22
      vertex 0 0 22
      vertex 97.5 0 22
    endloop
  endfacet
  facet normal 0 0 1
    outer loop
      vertex 0 0 22
      vertex 0.809999 0.809999 22
      vertex 0 120 22
    endloop
  endfacet
  facet normal 1 -0 0
    outer loop
      vertex 97.5 0 22
      vertex 97.5 120 0
      vertex 97.5 120 22
    endloop
  endfacet
  facet normal 1 0 0
    outer loop
      vertex 97.5 120 0
      vertex 97.5 0 22
      vertex 97.5 0 0
    endloop
  endfacet
  facet normal 0 1 -0
    outer loop
      vertex 97.5 120 0
      vertex 0 120 22
      vertex 97.5 120 22
    endloop
  endfacet
  facet normal 0 1 0
    outer loop
      vertex 0 120 22
      vertex 97.5 120 0
      vertex 0 120 0
    endloop
  endfacet
  facet normal 0 0 -1
    outer loop
      vertex 0 0 0
      vertex 97.5 120 0
      vertex 97.5 0 0
    endloop
  endfacet
  facet normal -0 0 -1
    outer loop
      vertex 97.5 120 0
      vertex 0 0 0
      vertex 0 120 0
    endloop
  endfacet
  facet normal 0 -1 0
    outer loop
      vertex 0 0 0
      vertex 97.5 0 22
      vertex 0 0 22
    endloop
  endfacet
  facet normal 0 -1 -0
    outer loop
      vertex 97.5 0 22
      vertex 0 0 0
      vertex 97.5 0 0
    endloop
  endfacet
  facet normal 1 -0 0
    outer loop
      vertex 0.809999 0.809999 22
      vertex 0.809999 119.21 2.81
      vertex 0.809999 119.21 22
    endloop
  endfacet
  facet normal 1 0 0
    outer loop
      vertex 0.809999 119.21 2.81
      vertex 0.809999 0.809999 22
      vertex 0.809999 0.809999 2.81
    endloop
  endfacet
  facet normal -1 0 0
    outer loop
      vertex 96.71 0.809999 2.81
      vertex 96.71 119.21 22
      vertex 96.71 119.21 2.81
    endloop
  endfacet
  facet normal -1 -0 0
    outer loop
      vertex 96.71 119.21 22
      vertex 96.71 0.809999 2.81
      vertex 96.71 0.809999 22
    endloop
  endfacet
  facet normal 0 -1 0
    outer loop
      vertex 0.809999 119.21 2.81
      vertex 96.71 119.21 22
      vertex 0.809999 119.21 22
    endloop
  endfacet
  facet normal 0 -1 -0
    outer loop
      vertex 96.71 119.21 22
      vertex 0.809999 119.21 2.81
      vertex 96.71 119.21 2.81
    endloop
  endfacet
  facet normal 0 0 1
    outer loop
      vertex 94 4 2.81
      vertex 96.71 119.21 2.81
      vertex 94 117 2.81
    endloop
  endfacet
  facet normal 0 0 1
    outer loop
      vertex 96.71 119.21 2.81
      vertex 4 117 2.81
      vertex 94 117 2.81
    endloop
  endfacet
  facet normal 0 0 1
    outer loop
      vertex 4 117 2.81
      vertex 0.809999 119.21 2.81
      vertex 4 4 2.81
    endloop
  endfacet
  facet normal -0 0 1
    outer loop
      vertex 0.809999 119.21 2.81
      vertex 4 117 2.81
      vertex 96.71 119.21 2.81
    endloop
  endfacet
  facet normal 0 0 1
    outer loop
      vertex 96.71 119.21 2.81
      vertex 94 4 2.81
      vertex 96.71 0.809999 2.81
    endloop
  endfacet
  facet normal -0 0 1
    outer loop
      vertex 4 4 2.81
      vertex 96.71 0.809999 2.81
      vertex 94 4 2.81
    endloop
  endfacet
  facet normal 0 0 1
    outer loop
      vertex 4 4 2.81
      vertex 0.809999 0.809999 2.81
      vertex 96.71 0.809999 2.81
    endloop
  endfacet
  facet normal 0 0 1
    outer loop
      vertex 0.809999 0.809999 2.81
      vertex 4 4 2.81
      vertex 0.809999 119.21 2.81
    endloop
  endfacet
  facet normal -0 0 1
    outer loop
      vertex 9.8 35.6 2.81
      vertex 32.8 32.8 2.81
      vertex 32.8 35.6 2.81
    endloop
  endfacet
  facet normal 0 0 1
    outer loop
      vertex 32.8 32.8 2.81
      vertex 9.8 35.6 2.81
      vertex 9.8 32.8 2.81
    endloop
  endfacet
  facet normal -0 0 1
    outer loop
      vertex 9.8 61.4 2.81
      vertex 32.8 58.6 2.81
      vertex 32.8 61.4 2.81
    endloop
  endfacet
  facet normal 0 0 1
    outer loop
      vertex 32.8 58.6 2.81
      vertex 9.8 61.4 2.81
      vertex 9.8 58.6 2.81
    endloop
  endfacet
  facet normal -0 0 1
    outer loop
      vertex 9.8 87.2 2.81
      vertex 32.8 84.4 2.81
      vertex 32.8 87.2 2.81
    endloop
  endfacet
  facet normal 0 0 1
    outer loop
      vertex 32.8 84.4 2.81
      vertex 9.8 87.2 2.81
      vertex 9.8 84.4 2.81
    endloop
  endfacet
  facet normal -0 0 1
    outer loop
      vertex 35.6 29.1 2.81
      vertex 52.1 26.3 2.81
      vertex 52.1 29.1 2.81
    endloop
  endfacet
  facet normal 0 0 1
    outer loop
      vertex 52.1 26.3 2.81
      vertex 35.6 29.1 2.81
      vertex 35.6 26.3 2.81
    endloop
  endfacet
  facet normal -0 0 1
    outer loop
      vertex 35.6 48.4 2.81
      vertex 52.1 45.6 2.81
      vertex 52.1 48.4 2.81
    endloop
  endfacet
  facet normal 0 0 1
    outer loop
      vertex 52.1 45.6 2.81
      vertex 35.6 48.4 2.81
      vertex 35.6 45.6 2.81
    endloop
  endfacet
  facet normal -0 0 1
    outer loop
      vertex 35.6 67.7 2.81
      vertex 52.1 64.9 2.81
      vertex 52.1 67.7 2.81
    endloop
  endfacet
  facet normal 0 0 1
    outer loop
      vertex 52.1 64.9 2.81
      vertex 35.6 67.7 2.81
      vertex 35.6 64.9 2.81
    endloop
  endfacet
  facet normal -0 0 1
    outer loop
      vertex 35.6 87 2.81
      vertex 52.1 84.2 2.81
      vertex 52.1 87 2.81
    endloop
  endfacet
  facet normal 0 0 1
    outer loop
      vertex 52.1 84.2 2.81
      vertex 35.6 87 2.81
      vertex 35.6 84.2 2.81
    endloop
  endfacet
  facet normal -0 0 1
    outer loop
      vertex 54.9 33.6 2.81
      vertex 69.9 30.8 2.81
      vertex 69.9 33.6 2.81
    endloop
  endfacet
  facet normal 0 0 1
    outer loop
      vertex 69.9 30.8 2.81
      vertex 54.9 33.6 2.81
      vertex 54.9 30.8 2.81
    endloop
  endfacet
  facet normal -0 0 1
    outer loop
      vertex 54.9 57.4 2.81
      vertex 69.9 54.6 2.81
      vertex 69.9 57.4 2.81
    endloop
  endfacet
  facet normal 0 0 1
    outer loop
      vertex 69.9 54.6 2.81
      vertex 54.9 57.4 2.81
      vertex 54.9 54.6 2.81
    endloop
  endfacet
  facet normal -0 0 1
    outer loop
      vertex 54.9 81.2 2.81
      vertex 69.9 78.4 2.81
      vertex 69.9 81.2 2.81
    endloop
  endfacet
  facet normal 0 0 1
    outer loop
      vertex 69.9 78.4 2.81
      vertex 54.9 81.2 2.81
      vertex 54.9 78.4 2.81
    endloop
  endfacet
  facet normal -0 0 1
    outer loop
      vertex 72.7 33.6 2.81
      vertex 87.7 30.8 2.81
      vertex 87.7 33.6 2.81
    endloop
  endfacet
  facet normal 0 0 1
    outer loop
      vertex 87.7 30.8 2.81
      vertex 72.7 33.6 2.81
      vertex 72.7 30.8 2.81
    endloop
  endfacet
  facet normal -0 0 1
    outer loop
      vertex 72.7 57.4 2.81
      vertex 87.7 54.6 2.81
      vertex 87.7 57.4 2.81
    endloop
  endfacet
  facet normal 0 0 1
    outer loop
      vertex 87.7 54.6 2.81
      vertex 72.7 57.4 2.81
      vertex 72.7 54.6 2.81
    endloop
  endfacet
  facet normal -0 0 1
    outer loop
      vertex 72.7 81.2 2.81
      vertex 87.7 78.4 2.81
      vertex 87.7 81.2 2.81
    endloop
  endfacet
  facet normal 0 0 1
    outer loop
      vertex 87.7 78.4 2.81
      vertex 72.7 81.2 2.81
      vertex 72.7 78.4 2.81
    endloop
  endfacet
  facet normal 0 0 1
    outer loop
      vertex 87.7 81.2 2.81
      vertex 90 113 2.81
      vertex 87.7 102.2 2.81
    endloop
  endfacet
  facet normal 0 0 1
    outer loop
      vertex 90 113 2.81
      vertex 72.7 102.2 2.81
      vertex 87.7 102.2 2.81
    endloop
  endfacet
  facet normal 0 0 1
    outer loop
      vertex 69.9 81.2 2.81
      vertex 72.7 81.2 2.81
      vertex 72.7 102.2 2.81
    endloop
  endfacet
  facet normal 0 0 1
    outer loop
      vertex 72.7 81.2 2.81
      vertex 69.9 81.2 2.81
      vertex 72.7 78.4 2.81
    endloop
  endfacet
  facet normal 0 0 1
    outer loop
      vertex 72.7 78.4 2.81
      vertex 69.9 78.4 2.81
      vertex 72.7 57.4 2.81
    endloop
  endfacet
  facet normal 0 0 1
    outer loop
      vertex 69.9 57.4 2.81
      vertex 72.7 57.4 2.81
      vertex 69.9 78.4 2.81
    endloop
  endfacet
  facet normal 0 0 1
    outer loop
      vertex 69.9 54.6 2.81
      vertex 72.7 54.6 2.81
      vertex 69.9 57.4 2.81
    endloop
  endfacet
  facet normal 0 0 1
    outer loop
      vertex 72.7 54.6 2.81
      vertex 69.9 54.6 2.81
      vertex 72.7 33.6 2.81
    endloop
  endfacet
  facet normal 0 0 1
    outer loop
      vertex 69.9 81.2 2.81
      vertex 72.7 102.2 2.81
      vertex 69.9 102.2 2.81
    endloop
  endfacet
  facet normal 0 0 1
    outer loop
      vertex 90 113 2.81
      vertex 69.9 102.2 2.81
      vertex 72.7 102.2 2.81
    endloop
  endfacet
  facet normal -0 0 1
    outer loop
      vertex 52.1 110 2.81
      vertex 69.9 102.2 2.81
      vertex 90 113 2.81
    endloop
  endfacet
  facet normal -0 0 1
    outer loop
      vertex 52.1 87 2.81
      vertex 54.9 81.2 2.81
      vertex 54.9 102.2 2.81
    endloop
  endfacet
  facet normal -0 0 1
    outer loop
      vertex 52.1 84.2 2.81
      vertex 54.9 81.2 2.81
      vertex 52.1 87 2.81
    endloop
  endfacet
  facet normal 0 0 1
    outer loop
      vertex 52.1 67.7 2.81
      vertex 54.9 78.4 2.81
      vertex 52.1 84.2 2.81
    endloop
  endfacet
  facet normal 0 0 1
    outer loop
      vertex 54.9 78.4 2.81
      vertex 52.1 67.7 2.81
      vertex 54.9 57.4 2.81
    endloop
  endfacet
  facet normal 0 0 1
    outer loop
      vertex 54.9 57.4 2.81
      vertex 52.1 48.4 2.81
      vertex 54.9 54.6 2.81
    endloop
  endfacet
  facet normal 0 0 1
    outer loop
      vertex 52.1 45.6 2.81
      vertex 54.9 54.6 2.81
      vertex 52.1 48.4 2.81
    endloop
  endfacet
  facet normal 0 0 1
    outer loop
      vertex 52.1 87 2.81
      vertex 54.9 102.2 2.81
      vertex 52.1 110 2.81
    endloop
  endfacet
  facet normal 0 0 1
    outer loop
      vertex 69.9 102.2 2.81
      vertex 52.1 110 2.81
      vertex 54.9 102.2 2.81
    endloop
  endfacet
  facet normal -0 0 1
    outer loop
      vertex 8 113 2.81
      vertex 52.1 110 2.81
      vertex 90 113 2.81
    endloop
  endfacet
  facet normal -0 0 1
    outer loop
      vertex 32.8 87.2 2.81
      vertex 35.6 87 2.81
      vertex 35.6 110 2.81
    endloop
  endfacet
  facet normal 0 0 1
    outer loop
      vertex 32.8 84.4 2.81
      vertex 35.6 87 2.81
      vertex 32.8 87.2 2.81
    endloop
  endfacet
  facet normal 0 0 1
    outer loop
      vertex 35.6 87 2.81
      vertex 32.8 84.4 2.81
      vertex 35.6 84.2 2.81
    endloop
  endfacet
  facet normal 0 0 1
    outer loop
      vertex 35.6 84.2 2.81
      vertex 32.8 84.4 2.81
      vertex 35.6 67.7 2.81
    endloop
  endfacet
  facet normal 0 0 1
    outer loop
      vertex 35.6 67.7 2.81
      vertex 32.8 61.4 2.81
      vertex 35.6 64.9 2.81
    endloop
  endfacet
  facet normal 0 0 1
    outer loop
      vertex 32.8 58.6 2.81
      vertex 35.6 64.9 2.81
      vertex 32.8 61.4 2.81
    endloop
  endfacet
  facet normal 0 0 1
    outer loop
      vertex 35.6 48.4 2.81
      vertex 32.8 58.6 2.81
      vertex 35.6 45.6 2.81
    endloop
  endfacet
  facet normal 0 0 1
    outer loop
      vertex 32.8 35.6 2.81
      vertex 35.6 45.6 2.81
      vertex 32.8 58.6 2.81
    endloop
  endfacet
  facet normal 0 0 1
    outer loop
      vertex 32.8 87.2 2.81
      vertex 35.6 110 2.81
      vertex 32.8 110.2 2.81
    endloop
  endfacet
  facet normal 0 0 1
    outer loop
      vertex 52.1 110 2.81
      vertex 32.8 110.2 2.81
      vertex 35.6 110 2.81
    endloop
  endfacet
  facet normal 0 0 1
    outer loop
      vertex 52.1 110 2.81
      vertex 8 113 2.81
      vertex 32.8 110.2 2.81
    endloop
  endfacet
  facet normal 0 0 1
    outer loop
      vertex 8 113 2.81
      vertex 9.8 87.2 2.81
      vertex 9.8 110.2 2.81
    endloop
  endfacet
  facet normal 0 0 1
    outer loop
      vertex 9.8 87.2 2.81
      vertex 8 113 2.81
      vertex 9.8 84.4 2.81
    endloop
  endfacet
  facet normal 0 0 1
    outer loop
      vertex 9.8 84.4 2.81
      vertex 8 113 2.81
      vertex 9.8 61.4 2.81
    endloop
  endfacet
  facet normal 0 0 1
    outer loop
      vertex 9.8 61.4 2.81
      vertex 8 113 2.81
      vertex 9.8 58.6 2.81
    endloop
  endfacet
  facet normal 0 0 1
    outer loop
      vertex 8 8 2.81
      vertex 9.8 58.6 2.81
      vertex 8 113 2.81
    endloop
  endfacet
  facet normal 0 0 1
    outer loop
      vertex 9.8 58.6 2.81
      vertex 8 8 2.81
      vertex 9.8 35.6 2.81
    endloop
  endfacet
  facet normal 0 0 1
    outer loop
      vertex 9.8 35.6 2.81
      vertex 8 8 2.81
      vertex 9.8 32.8 2.81
    endloop
  endfacet
  facet normal 0 0 1
    outer loop
      vertex 32.8 110.2 2.81
      vertex 8 113 2.81
      vertex 9.8 110.2 2.81
    endloop
  endfacet
  facet normal 0 0 1
    outer loop
      vertex 87.7 78.4 2.81
      vertex 90 113 2.81
      vertex 87.7 81.2 2.81
    endloop
  endfacet
  facet normal 0 0 1
    outer loop
      vertex 87.7 57.4 2.81
      vertex 90 113 2.81
      vertex 87.7 78.4 2.81
    endloop
  endfacet
  facet normal 0 0 1
    outer loop
      vertex 90 113 2.81
      vertex 87.7 57.4 2.81
      vertex 90 8 2.81
    endloop
  endfacet
  facet normal -0 0 1
    outer loop
      vertex 87.7 54.6 2.81
      vertex 90 8 2.81
      vertex 87.7 57.4 2.81
    endloop
  endfacet
  facet normal -0 0 1
    outer loop
      vertex 87.7 33.6 2.81
      vertex 90 8 2.81
      vertex 87.7 54.6 2.81
    endloop
  endfacet
  facet normal -0 0 1
    outer loop
      vertex 87.7 30.8 2.81
      vertex 90 8 2.81
      vertex 87.7 33.6 2.81
    endloop
  endfacet
  facet normal -0 0 1
    outer loop
      vertex 87.7 9.8 2.81
      vertex 90 8 2.81
      vertex 87.7 30.8 2.81
    endloop
  endfacet
  facet normal -0 0 1
    outer loop
      vertex 72.7 9.8 2.81
      vertex 90 8 2.81
      vertex 87.7 9.8 2.81
    endloop
  endfacet
  facet normal 0 0 1
    outer loop
      vertex 72.7 78.4 2.81
      vertex 69.9 81.2 2.81
      vertex 69.9 78.4 2.81
    endloop
  endfacet
  facet normal 0 0 1
    outer loop
      vertex 72.7 57.4 2.81
      vertex 69.9 57.4 2.81
      vertex 72.7 54.6 2.81
    endloop
  endfacet
  facet normal 0 0 1
    outer loop
      vertex 69.9 33.6 2.81
      vertex 72.7 33.6 2.81
      vertex 69.9 54.6 2.81
    endloop
  endfacet
  facet normal 0 0 1
    outer loop
      vertex 72.7 33.6 2.81
      vertex 69.9 33.6 2.81
      vertex 72.7 30.8 2.81
    endloop
  endfacet
  facet normal 0 0 1
    outer loop
      vertex 69.9 30.8 2.81
      vertex 72.7 30.8 2.81
      vertex 69.9 33.6 2.81
    endloop
  endfacet
  facet normal 0 0 1
    outer loop
      vertex 72.7 30.8 2.81
      vertex 69.9 30.8 2.81
      vertex 72.7 9.8 2.81
    endloop
  endfacet
  facet normal 0 0 1
    outer loop
      vertex 69.9 9.8 2.81
      vertex 72.7 9.8 2.81
      vertex 69.9 30.8 2.81
    endloop
  endfacet
  facet normal -0 0 1
    outer loop
      vertex 69.9 9.8 2.81
      vertex 90 8 2.81
      vertex 72.7 9.8 2.81
    endloop
  endfacet
  facet normal -0 0 1
    outer loop
      vertex 54.9 9.8 2.81
      vertex 90 8 2.81
      vertex 69.9 9.8 2.81
    endloop
  endfacet
  facet normal 0 0 1
    outer loop
      vertex 54.9 81.2 2.81
      vertex 52.1 84.2 2.81
      vertex 54.9 78.4 2.81
    endloop
  endfacet
  facet normal -0 0 1
    outer loop
      vertex 52.1 64.9 2.81
      vertex 54.9 57.4 2.81
      vertex 52.1 67.7 2.81
    endloop
  endfacet
  facet normal 0 0 1
    outer loop
      vertex 52.1 48.4 2.81
      vertex 54.9 57.4 2.81
      vertex 52.1 64.9 2.81
    endloop
  endfacet
  facet normal 0 0 1
    outer loop
      vertex 54.9 54.6 2.81
      vertex 52.1 45.6 2.81
      vertex 54.9 33.6 2.81
    endloop
  endfacet
  facet normal 0 0 1
    outer loop
      vertex 52.1 29.1 2.81
      vertex 54.9 33.6 2.81
      vertex 52.1 45.6 2.81
    endloop
  endfacet
  facet normal 0 0 1
    outer loop
      vertex 54.9 33.6 2.81
      vertex 52.1 29.1 2.81
      vertex 54.9 30.8 2.81
    endloop
  endfacet
  facet normal 0 0 1
    outer loop
      vertex 52.1 26.3 2.81
      vertex 54.9 30.8 2.81
      vertex 52.1 29.1 2.81
    endloop
  endfacet
  facet normal 0 0 1
    outer loop
      vertex 54.9 30.8 2.81
      vertex 52.1 26.3 2.81
      vertex 54.9 9.8 2.81
    endloop
  endfacet
  facet normal 0 0 1
    outer loop
      vertex 52.1 9.8 2.81
      vertex 54.9 9.8 2.81
      vertex 52.1 26.3 2.81
    endloop
  endfacet
  facet normal -0 0 1
    outer loop
      vertex 52.1 9.8 2.81
      vertex 90 8 2.81
      vertex 54.9 9.8 2.81
    endloop
  endfacet
  facet normal 0 0 1
    outer loop
      vertex 8 8 2.81
      vertex 52.1 9.8 2.81
      vertex 35.6 9.8 2.81
    endloop
  endfacet
  facet normal 0 0 1
    outer loop
      vertex 32.8 61.4 2.81
      vertex 35.6 67.7 2.81
      vertex 32.8 84.4 2.81
    endloop
  endfacet
  facet normal 0 0 1
    outer loop
      vertex 35.6 64.9 2.81
      vertex 32.8 58.6 2.81
      vertex 35.6 48.4 2.81
    endloop
  endfacet
  facet normal 0 0 1
    outer loop
      vertex 35.6 45.6 2.81
      vertex 32.8 35.6 2.81
      vertex 35.6 29.1 2.81
    endloop
  endfacet
  facet normal -0 0 1
    outer loop
      vertex 32.8 32.8 2.81
      vertex 35.6 29.1 2.81
      vertex 32.8 35.6 2.81
    endloop
  endfacet
  facet normal 0 0 1
    outer loop
      vertex 35.6 29.1 2.81
      vertex 32.8 32.8 2.81
      vertex 35.6 26.3 2.81
    endloop
  endfacet
  facet normal 0 0 1
    outer loop
      vertex 32.8 9.8 2.81
      vertex 35.6 26.3 2.81
      vertex 32.8 32.8 2.81
    endloop
  endfacet
  facet normal 0 0 1
    outer loop
      vertex 35.6 26.3 2.81
      vertex 32.8 9.8 2.81
      vertex 35.6 9.8 2.81
    endloop
  endfacet
  facet normal 0 0 1
    outer loop
      vertex 8 8 2.81
      vertex 35.6 9.8 2.81
      vertex 32.8 9.8 2.81
    endloop
  endfacet
  facet normal 0 0 1
    outer loop
      vertex 8 8 2.81
      vertex 32.8 9.8 2.81
      vertex 9.8 9.8 2.81
    endloop
  endfacet
  facet normal 0 0 1
    outer loop
      vertex 52.1 9.8 2.81
      vertex 8 8 2.81
      vertex 90 8 2.81
    endloop
  endfacet
  facet normal 0 0 1
    outer loop
      vertex 9.8 32.8 2.81
      vertex 8 8 2.81
      vertex 9.8 9.8 2.81
    endloop
  endfacet
  facet normal 0 1 -0
    outer loop
      vertex 96.71 0.809999 2.81
      vertex 0.809999 0.809999 22
      vertex 96.71 0.809999 22
    endloop
  endfacet
  facet normal 0 1 0
    outer loop
      vertex 0.809999 0.809999 22
      vertex 96.71 0.809999 2.81
      vertex 0.809999 0.809999 2.81
    endloop
  endfacet
  facet normal -1 0 0
    outer loop
      vertex 4 4 2.81
      vertex 4 117 5.01
      vertex 4 117 2.81
    endloop
  endfacet
  facet normal -1 -0 0
    outer loop
      vertex 4 117 5.01
      vertex 4 4 2.81
      vertex 4 4 5.01
    endloop
  endfacet
  facet normal 0 0 1
    outer loop
      vertex 94 117 5.01
      vertex 90 113 5.01
      vertex 94 4 5.01
    endloop
  endfacet
  facet normal 0 0 1
    outer loop
      vertex 94 117 5.01
      vertex 8 113 5.01
      vertex 90 113 5.01
    endloop
  endfacet
  facet normal 0 0 1
    outer loop
      vertex 8 113 5.01
      vertex 4 117 5.01
      vertex 8 8 5.01
    endloop
  endfacet
  facet normal -0 0 1
    outer loop
      vertex 4 117 5.01
      vertex 8 113 5.01
      vertex 94 117 5.01
    endloop
  endfacet
  facet normal -0 0 1
    outer loop
      vertex 90 8 5.01
      vertex 94 4 5.01
      vertex 90 113 5.01
    endloop
  endfacet
  facet normal -0 0 1
    outer loop
      vertex 8 8 5.01
      vertex 94 4 5.01
      vertex 90 8 5.01
    endloop
  endfacet
  facet normal 0 0 1
    outer loop
      vertex 8 8 5.01
      vertex 4 4 5.01
      vertex 94 4 5.01
    endloop
  endfacet
  facet normal 0 0 1
    outer loop
      vertex 4 4 5.01
      vertex 8 8 5.01
      vertex 4 117 5.01
    endloop
  endfacet
  facet normal 1 -0 0
    outer loop
      vertex 8 8 5.01
      vertex 8 113 2.81
      vertex 8 113 5.01
    endloop
  endfacet
  facet normal 1 0 0
    outer loop
      vertex 8 113 2.81
      vertex 8 8 5.01
      vertex 8 8 2.81
    endloop
  endfacet
  facet normal 0 -1 0
    outer loop
      vertex 4 4 2.81
      vertex 94 4 5.01
      vertex 4 4 5.01
    endloop
  endfacet
  facet normal 0 -1 -0
    outer loop
      vertex 94 4 5.01
      vertex 4 4 2.81
      vertex 94 4 2.81
    endloop
  endfacet
  facet normal -1 0 0
    outer loop
      vertex 90 8 2.81
      vertex 90 113 5.01
      vertex 90 113 2.81
    endloop
  endfacet
  facet normal -1 -0 0
    outer loop
      vertex 90 113 5.01
      vertex 90 8 2.81
      vertex 90 8 5.01
    endloop
  endfacet
  facet normal 1 -0 0
    outer loop
      vertex 94 4 5.01
      vertex 94 117 2.81
      vertex 94 117 5.01
    endloop
  endfacet
  facet normal 1 0 0
    outer loop
      vertex 94 117 2.81
      vertex 94 4 5.01
      vertex 94 4 2.81
    endloop
  endfacet
  facet normal 0 1 -0
    outer loop
      vertex 90 8 2.81
      vertex 8 8 5.01
      vertex 90 8 5.01
    endloop
  endfacet
  facet normal 0 1 0
    outer loop
      vertex 8 8 5.01
      vertex 90 8 2.81
      vertex 8 8 2.81
    endloop
  endfacet
  facet normal 0 -1 0
    outer loop
      vertex 8 113 2.81
      vertex 90 113 5.01
      vertex 8 113 5.01
    endloop
  endfacet
  facet normal 0 -1 -0
    outer loop
      vertex 90 113 5.01
      vertex 8 113 2.81
      vertex 90 113 2.81
    endloop
  endfacet
  facet normal 0 1 -0
    outer loop
      vertex 94 117 2.81
      vertex 4 117 5.01
      vertex 94 117 5.01
    endloop
  endfacet
  facet normal 0 1 0
    outer loop
      vertex 4 117 5.01
      vertex 94 117 2.81
      vertex 4 117 2.81
    endloop
  endfacet
endsolid OpenSCAD_Model
