solid OpenSCAD_Model
  facet normal 1 -0 0
    outer loop
      vertex 11.675 11.675 2.81
      vertex 11.675 32.925 0
      vertex 11.675 32.925 2.81
    endloop
  endfacet
  facet normal 1 0 0
    outer loop
      vertex 11.675 32.925 0
      vertex 11.675 11.675 2.81
      vertex 11.675 11.675 0
    endloop
  endfacet
  facet normal -1 0 0
    outer loop
      vertex 32.925 11.675 0
      vertex 32.925 32.925 2.81
      vertex 32.925 32.925 0
    endloop
  endfacet
  facet normal -1 -0 0
    outer loop
      vertex 32.925 32.925 2.81
      vertex 32.925 11.675 0
      vertex 32.925 11.675 2.81
    endloop
  endfacet
  facet normal 0 -1 0
    outer loop
      vertex 11.675 32.925 0
      vertex 32.925 32.925 2.81
      vertex 11.675 32.925 2.81
    endloop
  endfacet
  facet normal 0 -1 -0
    outer loop
      vertex 32.925 32.925 2.81
      vertex 11.675 32.925 0
      vertex 32.925 32.925 0
    endloop
  endfacet
  facet normal 0 1 -0
    outer loop
      vertex 32.925 11.675 0
      vertex 11.675 11.675 2.81
      vertex 32.925 11.675 2.81
    endloop
  endfacet
  facet normal 0 1 0
    outer loop
      vertex 11.675 11.675 2.81
      vertex 32.925 11.675 0
      vertex 11.675 11.675 0
    endloop
  endfacet
  facet normal 1 -0 0
    outer loop
      vertex 11.675 37.475 2.81
      vertex 11.675 58.725 0
      vertex 11.675 58.725 2.81
    endloop
  endfacet
  facet normal 1 0 0
    outer loop
      vertex 11.675 58.725 0
      vertex 11.675 37.475 2.81
      vertex 11.675 37.475 0
    endloop
  endfacet
  facet normal -1 0 0
    outer loop
      vertex 32.925 37.475 0
      vertex 32.925 58.725 2.81
      vertex 32.925 58.725 0
    endloop
  endfacet
  facet normal -1 -0 0
    outer loop
      vertex 32.925 58.725 2.81
      vertex 32.925 37.475 0
      vertex 32.925 37.475 2.81
    endloop
  endfacet
  facet normal 0 1 -0
    outer loop
      vertex 32.925 37.475 0
      vertex 11.675 37.475 2.81
      vertex 32.925 37.475 2.81
    endloop
  endfacet
  facet normal 0 1 0
    outer loop
      vertex 11.675 37.475 2.81
      vertex 32.925 37.475 0
      vertex 11.675 37.475 0
    endloop
  endfacet
  facet normal 0 -1 0
    outer loop
      vertex 11.675 58.725 0
      vertex 32.925 58.725 2.81
      vertex 11.675 58.725 2.81
    endloop
  endfacet
  facet normal 0 -1 -0
    outer loop
      vertex 32.925 58.725 2.81
      vertex 11.675 58.725 0
      vertex 32.925 58.725 0
    endloop
  endfacet
  facet normal 1 -0 0
    outer loop
      vertex 11.675 63.275 2.81
      vertex 11.675 84.525 0
      vertex 11.675 84.525 2.81
    endloop
  endfacet
  facet normal 1 0 0
    outer loop
      vertex 11.675 84.525 0
      vertex 11.675 63.275 2.81
      vertex 11.675 63.275 0
    endloop
  endfacet
  facet normal -1 0 0
    outer loop
      vertex 32.925 63.275 0
      vertex 32.925 84.525 2.81
      vertex 32.925 84.525 0
    endloop
  endfacet
  facet normal -1 -0 0
    outer loop
      vertex 32.925 84.525 2.81
      vertex 32.925 63.275 0
      vertex 32.925 63.275 2.81
    endloop
  endfacet
  facet normal 0 -1 0
    outer loop
      vertex 11.675 84.525 0
      vertex 32.925 84.525 2.81
      vertex 11.675 84.525 2.81
    endloop
  endfacet
  facet normal 0 -1 -0
    outer loop
      vertex 32.925 84.525 2.81
      vertex 11.675 84.525 0
      vertex 32.925 84.525 0
    endloop
  endfacet
  facet normal 0 1 -0
    outer loop
      vertex 32.925 63.275 0
      vertex 11.675 63.275 2.81
      vertex 32.925 63.275 2.81
    endloop
  endfacet
  facet normal 0 1 0
    outer loop
      vertex 11.675 63.275 2.81
      vertex 32.925 63.275 0
      vertex 11.675 63.275 0
    endloop
  endfacet
  facet normal 1 -0 0
    outer loop
      vertex 11.675 89.075 2.81
      vertex 11.675 110.325 0
      vertex 11.675 110.325 2.81
    endloop
  endfacet
  facet normal 1 0 0
    outer loop
      vertex 11.675 110.325 0
      vertex 11.675 89.075 2.81
      vertex 11.675 89.075 0
    endloop
  endfacet
  facet normal -1 0 0
    outer loop
      vertex 32.925 89.075 0
      vertex 32.925 110.325 2.81
      vertex 32.925 110.325 0
    endloop
  endfacet
  facet normal -1 -0 0
    outer loop
      vertex 32.925 110.325 2.81
      vertex 32.925 89.075 0
      vertex 32.925 89.075 2.81
    endloop
  endfacet
  facet normal 0 -1 0
    outer loop
      vertex 11.675 110.325 0
      vertex 32.925 110.325 2.81
      vertex 11.675 110.325 2.81
    endloop
  endfacet
  facet normal 0 -1 -0
    outer loop
      vertex 32.925 110.325 2.81
      vertex 11.675 110.325 0
      vertex 32.925 110.325 0
    endloop
  endfacet
  facet normal 0 1 -0
    outer loop
      vertex 32.925 89.075 0
      vertex 11.675 89.075 2.81
      vertex 32.925 89.075 2.81
    endloop
  endfacet
  facet normal 0 1 0
    outer loop
      vertex 11.675 89.075 2.81
      vertex 32.925 89.075 0
      vertex 11.675 89.075 0
    endloop
  endfacet
  facet normal 1 -0 0
    outer loop
      vertex 36.9875 11.1875 2.81
      vertex 36.9875 26.9125 0
      vertex 36.9875 26.9125 2.81
    endloop
  endfacet
  facet normal 1 0 0
    outer loop
      vertex 36.9875 26.9125 0
      vertex 36.9875 11.1875 2.81
      vertex 36.9875 11.1875 0
    endloop
  endfacet
  facet normal -1 0 0
    outer loop
      vertex 52.7125 11.1875 0
      vertex 52.7125 26.9125 2.81
      vertex 52.7125 26.9125 0
    endloop
  endfacet
  facet normal -1 -0 0
    outer loop
      vertex 52.7125 26.9125 2.81
      vertex 52.7125 11.1875 0
      vertex 52.7125 11.1875 2.81
    endloop
  endfacet
  facet normal 0 -1 0
    outer loop
      vertex 36.9875 26.9125 0
      vertex 52.7125 26.9125 2.81
      vertex 36.9875 26.9125 2.81
    endloop
  endfacet
  facet normal 0 -1 -0
    outer loop
      vertex 52.7125 26.9125 2.81
      vertex 36.9875 26.9125 0
      vertex 52.7125 26.9125 0
    endloop
  endfacet
  facet normal 0 1 -0
    outer loop
      vertex 52.7125 11.1875 0
      vertex 36.9875 11.1875 2.81
      vertex 52.7125 11.1875 2.81
    endloop
  endfacet
  facet normal 0 1 0
    outer loop
      vertex 36.9875 11.1875 2.81
      vertex 52.7125 11.1875 0
      vertex 36.9875 11.1875 0
    endloop
  endfacet
  facet normal 1 -0 0
    outer loop
      vertex 36.9875 30.4875 2.81
      vertex 36.9875 46.2125 0
      vertex 36.9875 46.2125 2.81
    endloop
  endfacet
  facet normal 1 0 0
    outer loop
      vertex 36.9875 46.2125 0
      vertex 36.9875 30.4875 2.81
      vertex 36.9875 30.4875 0
    endloop
  endfacet
  facet normal -1 0 0
    outer loop
      vertex 52.7125 30.4875 0
      vertex 52.7125 46.2125 2.81
      vertex 52.7125 46.2125 0
    endloop
  endfacet
  facet normal -1 -0 0
    outer loop
      vertex 52.7125 46.2125 2.81
      vertex 52.7125 30.4875 0
      vertex 52.7125 30.4875 2.81
    endloop
  endfacet
  facet normal 0 -1 0
    outer loop
      vertex 36.9875 46.2125 0
      vertex 52.7125 46.2125 2.81
      vertex 36.9875 46.2125 2.81
    endloop
  endfacet
  facet normal 0 -1 -0
    outer loop
      vertex 52.7125 46.2125 2.81
      vertex 36.9875 46.2125 0
      vertex 52.7125 46.2125 0
    endloop
  endfacet
  facet normal 0 1 -0
    outer loop
      vertex 52.7125 30.4875 0
      vertex 36.9875 30.4875 2.81
      vertex 52.7125 30.4875 2.81
    endloop
  endfacet
  facet normal 0 1 0
    outer loop
      vertex 36.9875 30.4875 2.81
      vertex 52.7125 30.4875 0
      vertex 36.9875 30.4875 0
    endloop
  endfacet
  facet normal 1 -0 0
    outer loop
      vertex 36.9875 49.7875 2.81
      vertex 36.9875 65.5125 0
      vertex 36.9875 65.5125 2.81
    endloop
  endfacet
  facet normal 1 0 0
    outer loop
      vertex 36.9875 65.5125 0
      vertex 36.9875 49.7875 2.81
      vertex 36.9875 49.7875 0
    endloop
  endfacet
  facet normal -1 0 0
    outer loop
      vertex 52.7125 49.7875 0
      vertex 52.7125 65.5125 2.81
      vertex 52.7125 65.5125 0
    endloop
  endfacet
  facet normal -1 -0 0
    outer loop
      vertex 52.7125 65.5125 2.81
      vertex 52.7125 49.7875 0
      vertex 52.7125 49.7875 2.81
    endloop
  endfacet
  facet normal 0 -1 0
    outer loop
      vertex 36.9875 65.5125 0
      vertex 52.7125 65.5125 2.81
      vertex 36.9875 65.5125 2.81
    endloop
  endfacet
  facet normal 0 -1 -0
    outer loop
      vertex 52.7125 65.5125 2.81
      vertex 36.9875 65.5125 0
      vertex 52.7125 65.5125 0
    endloop
  endfacet
  facet normal 0 1 -0
    outer loop
      vertex 52.7125 49.7875 0
      vertex 36.9875 49.7875 2.81
      vertex 52.7125 49.7875 2.81
    endloop
  endfacet
  facet normal 0 1 0
    outer loop
      vertex 36.9875 49.7875 2.81
      vertex 52.7125 49.7875 0
      vertex 36.9875 49.7875 0
    endloop
  endfacet
  facet normal 1 -0 0
    outer loop
      vertex 36.9875 69.0875 2.81
      vertex 36.9875 84.8125 0
      vertex 36.9875 84.8125 2.81
    endloop
  endfacet
  facet normal 1 0 0
    outer loop
      vertex 36.9875 84.8125 0
      vertex 36.9875 69.0875 2.81
      vertex 36.9875 69.0875 0
    endloop
  endfacet
  facet normal -1 0 0
    outer loop
      vertex 52.7125 69.0875 0
      vertex 52.7125 84.8125 2.81
      vertex 52.7125 84.8125 0
    endloop
  endfacet
  facet normal -1 -0 0
    outer loop
      vertex 52.7125 84.8125 2.81
      vertex 52.7125 69.0875 0
      vertex 52.7125 69.0875 2.81
    endloop
  endfacet
  facet normal 0 1 -0
    outer loop
      vertex 52.7125 69.0875 0
      vertex 36.9875 69.0875 2.81
      vertex 52.7125 69.0875 2.81
    endloop
  endfacet
  facet normal 0 1 0
    outer loop
      vertex 36.9875 69.0875 2.81
      vertex 52.7125 69.0875 0
      vertex 36.9875 69.0875 0
    endloop
  endfacet
  facet normal 0 -1 0
    outer loop
      vertex 36.9875 84.8125 0
      vertex 52.7125 84.8125 2.81
      vertex 36.9875 84.8125 2.81
    endloop
  endfacet
  facet normal 0 -1 -0
    outer loop
      vertex 52.7125 84.8125 2.81
      vertex 36.9875 84.8125 0
      vertex 52.7125 84.8125 0
    endloop
  endfacet
  facet normal 1 -0 0
    outer loop
      vertex 36.9875 88.875 2.81
      vertex 36.9875 110.125 0
      vertex 36.9875 110.125 2.81
    endloop
  endfacet
  facet normal 1 0 0
    outer loop
      vertex 36.9875 110.125 0
      vertex 36.9875 88.875 2.81
      vertex 36.9875 88.875 0
    endloop
  endfacet
  facet normal -1 0 0
    outer loop
      vertex 52.7125 88.875 0
      vertex 52.7125 110.125 2.81
      vertex 52.7125 110.125 0
    endloop
  endfacet
  facet normal -1 -0 0
    outer loop
      vertex 52.7125 110.125 2.81
      vertex 52.7125 88.875 0
      vertex 52.7125 88.875 2.81
    endloop
  endfacet
  facet normal 0 1 -0
    outer loop
      vertex 52.7125 88.875 0
      vertex 36.9875 88.875 2.81
      vertex 52.7125 88.875 2.81
    endloop
  endfacet
  facet normal 0 1 0
    outer loop
      vertex 36.9875 88.875 2.81
      vertex 52.7125 88.875 0
      vertex 36.9875 88.875 0
    endloop
  endfacet
  facet normal 0 -1 0
    outer loop
      vertex 36.9875 110.125 0
      vertex 52.7125 110.125 2.81
      vertex 36.9875 110.125 2.81
    endloop
  endfacet
  facet normal 0 -1 -0
    outer loop
      vertex 52.7125 110.125 2.81
      vertex 36.9875 110.125 0
      vertex 52.7125 110.125 0
    endloop
  endfacet
  facet normal 1 -0 0
    outer loop
      vertex 56.175 11.525 2.81
      vertex 56.175 31.075 0
      vertex 56.175 31.075 2.81
    endloop
  endfacet
  facet normal 1 0 0
    outer loop
      vertex 56.175 31.075 0
      vertex 56.175 11.525 2.81
      vertex 56.175 11.525 0
    endloop
  endfacet
  facet normal -1 0 0
    outer loop
      vertex 70.625 11.525 0
      vertex 70.625 31.075 2.81
      vertex 70.625 31.075 0
    endloop
  endfacet
  facet normal -1 -0 0
    outer loop
      vertex 70.625 31.075 2.81
      vertex 70.625 11.525 0
      vertex 70.625 11.525 2.81
    endloop
  endfacet
  facet normal 0 -1 0
    outer loop
      vertex 56.175 31.075 0
      vertex 70.625 31.075 2.81
      vertex 56.175 31.075 2.81
    endloop
  endfacet
  facet normal 0 -1 -0
    outer loop
      vertex 70.625 31.075 2.81
      vertex 56.175 31.075 0
      vertex 70.625 31.075 0
    endloop
  endfacet
  facet normal 0 1 -0
    outer loop
      vertex 70.625 11.525 0
      vertex 56.175 11.525 2.81
      vertex 70.625 11.525 2.81
    endloop
  endfacet
  facet normal 0 1 0
    outer loop
      vertex 56.175 11.525 2.81
      vertex 70.625 11.525 0
      vertex 56.175 11.525 0
    endloop
  endfacet
  facet normal 1 -0 0
    outer loop
      vertex 56.175 35.325 2.81
      vertex 56.175 54.875 0
      vertex 56.175 54.875 2.81
    endloop
  endfacet
  facet normal 1 0 0
    outer loop
      vertex 56.175 54.875 0
      vertex 56.175 35.325 2.81
      vertex 56.175 35.325 0
    endloop
  endfacet
  facet normal -1 0 0
    outer loop
      vertex 70.625 35.325 0
      vertex 70.625 54.875 2.81
      vertex 70.625 54.875 0
    endloop
  endfacet
  facet normal -1 -0 0
    outer loop
      vertex 70.625 54.875 2.81
      vertex 70.625 35.325 0
      vertex 70.625 35.325 2.81
    endloop
  endfacet
  facet normal 0 -1 0
    outer loop
      vertex 56.175 54.875 0
      vertex 70.625 54.875 2.81
      vertex 56.175 54.875 2.81
    endloop
  endfacet
  facet normal 0 -1 -0
    outer loop
      vertex 70.625 54.875 2.81
      vertex 56.175 54.875 0
      vertex 70.625 54.875 0
    endloop
  endfacet
  facet normal 0 1 -0
    outer loop
      vertex 70.625 35.325 0
      vertex 56.175 35.325 2.81
      vertex 70.625 35.325 2.81
    endloop
  endfacet
  facet normal 0 1 0
    outer loop
      vertex 56.175 35.325 2.81
      vertex 70.625 35.325 0
      vertex 56.175 35.325 0
    endloop
  endfacet
  facet normal 1 -0 0
    outer loop
      vertex 56.175 59.125 2.81
      vertex 56.175 78.675 0
      vertex 56.175 78.675 2.81
    endloop
  endfacet
  facet normal 1 0 0
    outer loop
      vertex 56.175 78.675 0
      vertex 56.175 59.125 2.81
      vertex 56.175 59.125 0
    endloop
  endfacet
  facet normal -1 0 0
    outer loop
      vertex 70.625 59.125 0
      vertex 70.625 78.675 2.81
      vertex 70.625 78.675 0
    endloop
  endfacet
  facet normal -1 -0 0
    outer loop
      vertex 70.625 78.675 2.81
      vertex 70.625 59.125 0
      vertex 70.625 59.125 2.81
    endloop
  endfacet
  facet normal 0 -1 0
    outer loop
      vertex 56.175 78.675 0
      vertex 70.625 78.675 2.81
      vertex 56.175 78.675 2.81
    endloop
  endfacet
  facet normal 0 -1 -0
    outer loop
      vertex 70.625 78.675 2.81
      vertex 56.175 78.675 0
      vertex 70.625 78.675 0
    endloop
  endfacet
  facet normal 0 1 -0
    outer loop
      vertex 70.625 59.125 0
      vertex 56.175 59.125 2.81
      vertex 70.625 59.125 2.81
    endloop
  endfacet
  facet normal 0 1 0
    outer loop
      vertex 56.175 59.125 2.81
      vertex 70.625 59.125 0
      vertex 56.175 59.125 0
    endloop
  endfacet
  facet normal 1 -0 0
    outer loop
      vertex 56.175 82.925 2.81
      vertex 56.175 102.475 0
      vertex 56.175 102.475 2.81
    endloop
  endfacet
  facet normal 1 0 0
    outer loop
      vertex 56.175 102.475 0
      vertex 56.175 82.925 2.81
      vertex 56.175 82.925 0
    endloop
  endfacet
  facet normal -1 0 0
    outer loop
      vertex 70.625 82.925 0
      vertex 70.625 102.475 2.81
      vertex 70.625 102.475 0
    endloop
  endfacet
  facet normal -1 -0 0
    outer loop
      vertex 70.625 102.475 2.81
      vertex 70.625 82.925 0
      vertex 70.625 82.925 2.81
    endloop
  endfacet
  facet normal 0 -1 0
    outer loop
      vertex 56.175 102.475 0
      vertex 70.625 102.475 2.81
      vertex 56.175 102.475 2.81
    endloop
  endfacet
  facet normal 0 -1 -0
    outer loop
      vertex 70.625 102.475 2.81
      vertex 56.175 102.475 0
      vertex 70.625 102.475 0
    endloop
  endfacet
  facet normal 0 1 -0
    outer loop
      vertex 70.625 82.925 0
      vertex 56.175 82.925 2.81
      vertex 70.625 82.925 2.81
    endloop
  endfacet
  facet normal 0 1 0
    outer loop
      vertex 56.175 82.925 2.81
      vertex 70.625 82.925 0
      vertex 56.175 82.925 0
    endloop
  endfacet
  facet normal 1 -0 0
    outer loop
      vertex 73.975 11.525 2.81
      vertex 73.975 31.075 0
      vertex 73.975 31.075 2.81
    endloop
  endfacet
  facet normal 1 0 0
    outer loop
      vertex 73.975 31.075 0
      vertex 73.975 11.525 2.81
      vertex 73.975 11.525 0
    endloop
  endfacet
  facet normal -1 0 0
    outer loop
      vertex 88.425 11.525 0
      vertex 88.425 31.075 2.81
      vertex 88.425 31.075 0
    endloop
  endfacet
  facet normal -1 -0 0
    outer loop
      vertex 88.425 31.075 2.81
      vertex 88.425 11.525 0
      vertex 88.425 11.525 2.81
    endloop
  endfacet
  facet normal 0 -1 0
    outer loop
      vertex 73.975 31.075 0
      vertex 88.425 31.075 2.81
      vertex 73.975 31.075 2.81
    endloop
  endfacet
  facet normal 0 -1 -0
    outer loop
      vertex 88.425 31.075 2.81
      vertex 73.975 31.075 0
      vertex 88.425 31.075 0
    endloop
  endfacet
  facet normal 0 1 -0
    outer loop
      vertex 88.425 11.525 0
      vertex 73.975 11.525 2.81
      vertex 88.425 11.525 2.81
    endloop
  endfacet
  facet normal 0 1 0
    outer loop
      vertex 73.975 11.525 2.81
      vertex 88.425 11.525 0
      vertex 73.975 11.525 0
    endloop
  endfacet
  facet normal 1 -0 0
    outer loop
      vertex 73.975 35.325 2.81
      vertex 73.975 54.875 0
      vertex 73.975 54.875 2.81
    endloop
  endfacet
  facet normal 1 0 0
    outer loop
      vertex 73.975 54.875 0
      vertex 73.975 35.325 2.81
      vertex 73.975 35.325 0
    endloop
  endfacet
  facet normal -1 0 0
    outer loop
      vertex 88.425 35.325 0
      vertex 88.425 54.875 2.81
      vertex 88.425 54.875 0
    endloop
  endfacet
  facet normal -1 -0 0
    outer loop
      vertex 88.425 54.875 2.81
      vertex 88.425 35.325 0
      vertex 88.425 35.325 2.81
    endloop
  endfacet
  facet normal 0 -1 0
    outer loop
      vertex 73.975 54.875 0
      vertex 88.425 54.875 2.81
      vertex 73.975 54.875 2.81
    endloop
  endfacet
  facet normal 0 -1 -0
    outer loop
      vertex 88.425 54.875 2.81
      vertex 73.975 54.875 0
      vertex 88.425 54.875 0
    endloop
  endfacet
  facet normal 0 1 -0
    outer loop
      vertex 88.425 35.325 0
      vertex 73.975 35.325 2.81
      vertex 88.425 35.325 2.81
    endloop
  endfacet
  facet normal 0 1 0
    outer loop
      vertex 73.975 35.325 2.81
      vertex 88.425 35.325 0
      vertex 73.975 35.325 0
    endloop
  endfacet
  facet normal 1 -0 0
    outer loop
      vertex 73.975 59.125 2.81
      vertex 73.975 78.675 0
      vertex 73.975 78.675 2.81
    endloop
  endfacet
  facet normal 1 0 0
    outer loop
      vertex 73.975 78.675 0
      vertex 73.975 59.125 2.81
      vertex 73.975 59.125 0
    endloop
  endfacet
  facet normal -1 0 0
    outer loop
      vertex 88.425 59.125 0
      vertex 88.425 78.675 2.81
      vertex 88.425 78.675 0
    endloop
  endfacet
  facet normal -1 -0 0
    outer loop
      vertex 88.425 78.675 2.81
      vertex 88.425 59.125 0
      vertex 88.425 59.125 2.81
    endloop
  endfacet
  facet normal 0 -1 0
    outer loop
      vertex 73.975 78.675 0
      vertex 88.425 78.675 2.81
      vertex 73.975 78.675 2.81
    endloop
  endfacet
  facet normal 0 -1 -0
    outer loop
      vertex 88.425 78.675 2.81
      vertex 73.975 78.675 0
      vertex 88.425 78.675 0
    endloop
  endfacet
  facet normal 0 1 -0
    outer loop
      vertex 88.425 59.125 0
      vertex 73.975 59.125 2.81
      vertex 88.425 59.125 2.81
    endloop
  endfacet
  facet normal 0 1 0
    outer loop
      vertex 73.975 59.125 2.81
      vertex 88.425 59.125 0
      vertex 73.975 59.125 0
    endloop
  endfacet
  facet normal 1 -0 0
    outer loop
      vertex 73.975 82.925 2.81
      vertex 73.975 102.475 0
      vertex 73.975 102.475 2.81
    endloop
  endfacet
  facet normal 1 0 0
    outer loop
      vertex 73.975 102.475 0
      vertex 73.975 82.925 2.81
      vertex 73.975 82.925 0
    endloop
  endfacet
  facet normal -1 0 0
    outer loop
      vertex 88.425 82.925 0
      vertex 88.425 102.475 2.81
      vertex 88.425 102.475 0
    endloop
  endfacet
  facet normal -1 -0 0
    outer loop
      vertex 88.425 102.475 2.81
      vertex 88.425 82.925 0
      vertex 88.425 82.925 2.81
    endloop
  endfacet
  facet normal 0 -1 0
    outer loop
      vertex 73.975 102.475 0
      vertex 88.425 102.475 2.81
      vertex 73.975 102.475 2.81
    endloop
  endfacet
  facet normal 0 -1 -0
    outer loop
      vertex 88.425 102.475 2.81
      vertex 73.975 102.475 0
      vertex 88.425 102.475 0
    endloop
  endfacet
  facet normal 0 1 -0
    outer loop
      vertex 88.425 82.925 0
      vertex 73.975 82.925 2.81
      vertex 88.425 82.925 2.81
    endloop
  endfacet
  facet normal 0 1 0
    outer loop
      vertex 73.975 82.925 2.81
      vertex 88.425 82.925 0
      vertex 73.975 82.925 0
    endloop
  endfacet
  facet normal -1 0 0
    outer loop
      vertex 0 0 0
      vertex 0 123.6 7
      vertex 0 123.6 0
    endloop
  endfacet
  facet normal -1 -0 0
    outer loop
      vertex 0 123.6 7
      vertex 0 0 0
      vertex 0 0 7
    endloop
  endfacet
  facet normal 0 0 1
    outer loop
      vertex 101.1 123.6 7
      vertex 99.51 122.01 7
      vertex 101.1 0 7
    endloop
  endfacet
  facet normal 0 0 1
    outer loop
      vertex 101.1 123.6 7
      vertex 1.61 122.01 7
      vertex 99.51 122.01 7
    endloop
  endfacet
  facet normal 0 0 1
    outer loop
      vertex 1.61 122.01 7
      vertex 0 123.6 7
      vertex 1.61 1.61 7
    endloop
  endfacet
  facet normal -0 0 1
    outer loop
      vertex 0 123.6 7
      vertex 1.61 122.01 7
      vertex 101.1 123.6 7
    endloop
  endfacet
  facet normal -0 0 1
    outer loop
      vertex 99.51 1.61 7
      vertex 101.1 0 7
      vertex 99.51 122.01 7
    endloop
  endfacet
  facet normal -0 0 1
    outer loop
      vertex 1.61 1.61 7
      vertex 101.1 0 7
      vertex 99.51 1.61 7
    endloop
  endfacet
  facet normal 0 0 1
    outer loop
      vertex 1.61 1.61 7
      vertex 0 0 7
      vertex 101.1 0 7
    endloop
  endfacet
  facet normal 0 0 1
    outer loop
      vertex 0 0 7
      vertex 1.61 1.61 7
      vertex 0 123.6 7
    endloop
  endfacet
  facet normal 1 -0 0
    outer loop
      vertex 101.1 0 7
      vertex 101.1 123.6 0
      vertex 101.1 123.6 7
    endloop
  endfacet
  facet normal 1 0 0
    outer loop
      vertex 101.1 123.6 0
      vertex 101.1 0 7
      vertex 101.1 0 0
    endloop
  endfacet
  facet normal 0 0 -1
    outer loop
      vertex 11.675 84.525 0
      vertex 32.925 89.075 0
      vertex 32.925 84.525 0
    endloop
  endfacet
  facet normal -0 0 -1
    outer loop
      vertex 32.925 89.075 0
      vertex 11.675 84.525 0
      vertex 11.675 89.075 0
    endloop
  endfacet
  facet normal 0 0 -1
    outer loop
      vertex 11.675 58.725 0
      vertex 32.925 63.275 0
      vertex 32.925 58.725 0
    endloop
  endfacet
  facet normal -0 0 -1
    outer loop
      vertex 32.925 63.275 0
      vertex 11.675 58.725 0
      vertex 11.675 63.275 0
    endloop
  endfacet
  facet normal 0 0 -1
    outer loop
      vertex 11.675 32.925 0
      vertex 32.925 37.475 0
      vertex 32.925 32.925 0
    endloop
  endfacet
  facet normal -0 0 -1
    outer loop
      vertex 32.925 37.475 0
      vertex 11.675 32.925 0
      vertex 11.675 37.475 0
    endloop
  endfacet
  facet normal 0 0 -1
    outer loop
      vertex 36.9875 84.8125 0
      vertex 52.7125 88.875 0
      vertex 52.7125 84.8125 0
    endloop
  endfacet
  facet normal -0 0 -1
    outer loop
      vertex 52.7125 88.875 0
      vertex 36.9875 84.8125 0
      vertex 36.9875 88.875 0
    endloop
  endfacet
  facet normal 0 0 -1
    outer loop
      vertex 36.9875 65.5125 0
      vertex 52.7125 69.0875 0
      vertex 52.7125 65.5125 0
    endloop
  endfacet
  facet normal -0 0 -1
    outer loop
      vertex 52.7125 69.0875 0
      vertex 36.9875 65.5125 0
      vertex 36.9875 69.0875 0
    endloop
  endfacet
  facet normal 0 0 -1
    outer loop
      vertex 36.9875 46.2125 0
      vertex 52.7125 49.7875 0
      vertex 52.7125 46.2125 0
    endloop
  endfacet
  facet normal -0 0 -1
    outer loop
      vertex 52.7125 49.7875 0
      vertex 36.9875 46.2125 0
      vertex 36.9875 49.7875 0
    endloop
  endfacet
  facet normal 0 0 -1
    outer loop
      vertex 36.9875 26.9125 0
      vertex 52.7125 30.4875 0
      vertex 52.7125 26.9125 0
    endloop
  endfacet
  facet normal -0 0 -1
    outer loop
      vertex 52.7125 30.4875 0
      vertex 36.9875 26.9125 0
      vertex 36.9875 30.4875 0
    endloop
  endfacet
  facet normal 0 0 -1
    outer loop
      vertex 56.175 78.675 0
      vertex 70.625 82.925 0
      vertex 70.625 78.675 0
    endloop
  endfacet
  facet normal -0 0 -1
    outer loop
      vertex 70.625 82.925 0
      vertex 56.175 78.675 0
      vertex 56.175 82.925 0
    endloop
  endfacet
  facet normal 0 0 -1
    outer loop
      vertex 56.175 54.875 0
      vertex 70.625 59.125 0
      vertex 70.625 54.875 0
    endloop
  endfacet
  facet normal -0 0 -1
    outer loop
      vertex 70.625 59.125 0
      vertex 56.175 54.875 0
      vertex 56.175 59.125 0
    endloop
  endfacet
  facet normal 0 0 -1
    outer loop
      vertex 56.175 31.075 0
      vertex 70.625 35.325 0
      vertex 70.625 31.075 0
    endloop
  endfacet
  facet normal -0 0 -1
    outer loop
      vertex 70.625 35.325 0
      vertex 56.175 31.075 0
      vertex 56.175 35.325 0
    endloop
  endfacet
  facet normal 0 0 -1
    outer loop
      vertex 73.975 78.675 0
      vertex 88.425 82.925 0
      vertex 88.425 78.675 0
    endloop
  endfacet
  facet normal -0 0 -1
    outer loop
      vertex 88.425 82.925 0
      vertex 73.975 78.675 0
      vertex 73.975 82.925 0
    endloop
  endfacet
  facet normal 0 0 -1
    outer loop
      vertex 73.975 54.875 0
      vertex 88.425 59.125 0
      vertex 88.425 54.875 0
    endloop
  endfacet
  facet normal -0 0 -1
    outer loop
      vertex 88.425 59.125 0
      vertex 73.975 54.875 0
      vertex 73.975 59.125 0
    endloop
  endfacet
  facet normal 0 0 -1
    outer loop
      vertex 73.975 31.075 0
      vertex 88.425 35.325 0
      vertex 88.425 31.075 0
    endloop
  endfacet
  facet normal -0 0 -1
    outer loop
      vertex 88.425 35.325 0
      vertex 73.975 31.075 0
      vertex 73.975 35.325 0
    endloop
  endfacet
  facet normal 0 0 -1
    outer loop
      vertex 88.425 31.075 0
      vertex 101.1 0 0
      vertex 88.425 11.525 0
    endloop
  endfacet
  facet normal 0 0 -1
    outer loop
      vertex 101.1 0 0
      vertex 73.975 11.525 0
      vertex 88.425 11.525 0
    endloop
  endfacet
  facet normal 0 0 -1
    outer loop
      vertex 70.625 31.075 0
      vertex 73.975 31.075 0
      vertex 73.975 11.525 0
    endloop
  endfacet
  facet normal 0 0 -1
    outer loop
      vertex 73.975 31.075 0
      vertex 70.625 31.075 0
      vertex 73.975 35.325 0
    endloop
  endfacet
  facet normal 0 0 -1
    outer loop
      vertex 73.975 35.325 0
      vertex 70.625 35.325 0
      vertex 73.975 54.875 0
    endloop
  endfacet
  facet normal 0 0 -1
    outer loop
      vertex 70.625 54.875 0
      vertex 73.975 54.875 0
      vertex 70.625 35.325 0
    endloop
  endfacet
  facet normal 0 0 -1
    outer loop
      vertex 70.625 59.125 0
      vertex 73.975 59.125 0
      vertex 70.625 54.875 0
    endloop
  endfacet
  facet normal 0 0 -1
    outer loop
      vertex 73.975 59.125 0
      vertex 70.625 59.125 0
      vertex 73.975 78.675 0
    endloop
  endfacet
  facet normal 0 0 -1
    outer loop
      vertex 70.625 31.075 0
      vertex 73.975 11.525 0
      vertex 70.625 11.525 0
    endloop
  endfacet
  facet normal 0 0 -1
    outer loop
      vertex 101.1 0 0
      vertex 70.625 11.525 0
      vertex 73.975 11.525 0
    endloop
  endfacet
  facet normal 0 0 -1
    outer loop
      vertex 101.1 0 0
      vertex 56.175 11.525 0
      vertex 70.625 11.525 0
    endloop
  endfacet
  facet normal 0 0 -1
    outer loop
      vertex 52.7125 26.9125 0
      vertex 56.175 31.075 0
      vertex 56.175 11.525 0
    endloop
  endfacet
  facet normal 0 0 -1
    outer loop
      vertex 52.7125 30.4875 0
      vertex 56.175 31.075 0
      vertex 52.7125 26.9125 0
    endloop
  endfacet
  facet normal 0 0 -1
    outer loop
      vertex 52.7125 46.2125 0
      vertex 56.175 35.325 0
      vertex 52.7125 30.4875 0
    endloop
  endfacet
  facet normal 0 0 -1
    outer loop
      vertex 56.175 35.325 0
      vertex 52.7125 46.2125 0
      vertex 56.175 54.875 0
    endloop
  endfacet
  facet normal -0 0 -1
    outer loop
      vertex 56.175 54.875 0
      vertex 52.7125 49.7875 0
      vertex 56.175 59.125 0
    endloop
  endfacet
  facet normal 0 0 -1
    outer loop
      vertex 52.7125 69.0875 0
      vertex 56.175 59.125 0
      vertex 52.7125 65.5125 0
    endloop
  endfacet
  facet normal 0 0 -1
    outer loop
      vertex 52.7125 26.9125 0
      vertex 56.175 11.525 0
      vertex 52.7125 11.1875 0
    endloop
  endfacet
  facet normal 0 0 -1
    outer loop
      vertex 101.1 0 0
      vertex 52.7125 11.1875 0
      vertex 56.175 11.525 0
    endloop
  endfacet
  facet normal 0 0 -1
    outer loop
      vertex 0 0 0
      vertex 52.7125 11.1875 0
      vertex 101.1 0 0
    endloop
  endfacet
  facet normal 0 0 -1
    outer loop
      vertex 32.925 11.675 0
      vertex 36.9875 26.9125 0
      vertex 36.9875 11.1875 0
    endloop
  endfacet
  facet normal 0 0 -1
    outer loop
      vertex 32.925 32.925 0
      vertex 36.9875 26.9125 0
      vertex 32.925 11.675 0
    endloop
  endfacet
  facet normal 0 0 -1
    outer loop
      vertex 32.925 37.475 0
      vertex 36.9875 30.4875 0
      vertex 32.925 32.925 0
    endloop
  endfacet
  facet normal 0 0 -1
    outer loop
      vertex 36.9875 30.4875 0
      vertex 32.925 37.475 0
      vertex 36.9875 46.2125 0
    endloop
  endfacet
  facet normal 0 0 -1
    outer loop
      vertex 32.925 58.725 0
      vertex 36.9875 49.7875 0
      vertex 32.925 37.475 0
    endloop
  endfacet
  facet normal 0 0 -1
    outer loop
      vertex 36.9875 49.7875 0
      vertex 32.925 58.725 0
      vertex 36.9875 65.5125 0
    endloop
  endfacet
  facet normal -0 0 -1
    outer loop
      vertex 36.9875 65.5125 0
      vertex 32.925 63.275 0
      vertex 36.9875 69.0875 0
    endloop
  endfacet
  facet normal 0 0 -1
    outer loop
      vertex 32.925 84.525 0
      vertex 36.9875 69.0875 0
      vertex 32.925 63.275 0
    endloop
  endfacet
  facet normal 0 0 -1
    outer loop
      vertex 36.9875 26.9125 0
      vertex 32.925 32.925 0
      vertex 36.9875 30.4875 0
    endloop
  endfacet
  facet normal -0 0 -1
    outer loop
      vertex 52.7125 11.1875 0
      vertex 0 0 0
      vertex 36.9875 11.1875 0
    endloop
  endfacet
  facet normal -0 0 -1
    outer loop
      vertex 36.9875 11.1875 0
      vertex 0 0 0
      vertex 32.925 11.675 0
    endloop
  endfacet
  facet normal 0 0 -1
    outer loop
      vertex 0 0 0
      vertex 11.675 32.925 0
      vertex 11.675 11.675 0
    endloop
  endfacet
  facet normal -0 0 -1
    outer loop
      vertex 11.675 32.925 0
      vertex 0 0 0
      vertex 11.675 37.475 0
    endloop
  endfacet
  facet normal -0 0 -1
    outer loop
      vertex 11.675 37.475 0
      vertex 0 0 0
      vertex 11.675 58.725 0
    endloop
  endfacet
  facet normal -0 0 -1
    outer loop
      vertex 11.675 58.725 0
      vertex 0 0 0
      vertex 11.675 63.275 0
    endloop
  endfacet
  facet normal 0 0 -1
    outer loop
      vertex 0 123.6 0
      vertex 11.675 63.275 0
      vertex 0 0 0
    endloop
  endfacet
  facet normal 0 0 -1
    outer loop
      vertex 11.675 63.275 0
      vertex 0 123.6 0
      vertex 11.675 84.525 0
    endloop
  endfacet
  facet normal 0 0 -1
    outer loop
      vertex 11.675 84.525 0
      vertex 0 123.6 0
      vertex 11.675 89.075 0
    endloop
  endfacet
  facet normal -0 0 -1
    outer loop
      vertex 32.925 11.675 0
      vertex 0 0 0
      vertex 11.675 11.675 0
    endloop
  endfacet
  facet normal 0 0 -1
    outer loop
      vertex 88.425 35.325 0
      vertex 101.1 0 0
      vertex 88.425 31.075 0
    endloop
  endfacet
  facet normal 0 0 -1
    outer loop
      vertex 88.425 54.875 0
      vertex 101.1 0 0
      vertex 88.425 35.325 0
    endloop
  endfacet
  facet normal 0 0 -1
    outer loop
      vertex 88.425 59.125 0
      vertex 101.1 0 0
      vertex 88.425 54.875 0
    endloop
  endfacet
  facet normal 0 0 -1
    outer loop
      vertex 101.1 0 0
      vertex 88.425 59.125 0
      vertex 101.1 123.6 0
    endloop
  endfacet
  facet normal 0 0 -1
    outer loop
      vertex 88.425 78.675 0
      vertex 101.1 123.6 0
      vertex 88.425 59.125 0
    endloop
  endfacet
  facet normal 0 0 -1
    outer loop
      vertex 88.425 82.925 0
      vertex 101.1 123.6 0
      vertex 88.425 78.675 0
    endloop
  endfacet
  facet normal 0 0 -1
    outer loop
      vertex 88.425 102.475 0
      vertex 101.1 123.6 0
      vertex 88.425 82.925 0
    endloop
  endfacet
  facet normal 0 0 -1
    outer loop
      vertex 73.975 102.475 0
      vertex 101.1 123.6 0
      vertex 88.425 102.475 0
    endloop
  endfacet
  facet normal -0 0 -1
    outer loop
      vertex 73.975 35.325 0
      vertex 70.625 31.075 0
      vertex 70.625 35.325 0
    endloop
  endfacet
  facet normal 0 0 -1
    outer loop
      vertex 73.975 54.875 0
      vertex 70.625 54.875 0
      vertex 73.975 59.125 0
    endloop
  endfacet
  facet normal 0 0 -1
    outer loop
      vertex 70.625 78.675 0
      vertex 73.975 78.675 0
      vertex 70.625 59.125 0
    endloop
  endfacet
  facet normal 0 0 -1
    outer loop
      vertex 73.975 78.675 0
      vertex 70.625 78.675 0
      vertex 73.975 82.925 0
    endloop
  endfacet
  facet normal 0 0 -1
    outer loop
      vertex 70.625 82.925 0
      vertex 73.975 82.925 0
      vertex 70.625 78.675 0
    endloop
  endfacet
  facet normal 0 0 -1
    outer loop
      vertex 73.975 82.925 0
      vertex 70.625 82.925 0
      vertex 73.975 102.475 0
    endloop
  endfacet
  facet normal 0 0 -1
    outer loop
      vertex 70.625 102.475 0
      vertex 73.975 102.475 0
      vertex 70.625 82.925 0
    endloop
  endfacet
  facet normal 0 0 -1
    outer loop
      vertex 52.7125 110.125 0
      vertex 73.975 102.475 0
      vertex 70.625 102.475 0
    endloop
  endfacet
  facet normal 0 0 -1
    outer loop
      vertex 52.7125 110.125 0
      vertex 70.625 102.475 0
      vertex 56.175 102.475 0
    endloop
  endfacet
  facet normal -0 0 -1
    outer loop
      vertex 56.175 31.075 0
      vertex 52.7125 30.4875 0
      vertex 56.175 35.325 0
    endloop
  endfacet
  facet normal 0 0 -1
    outer loop
      vertex 52.7125 49.7875 0
      vertex 56.175 54.875 0
      vertex 52.7125 46.2125 0
    endloop
  endfacet
  facet normal 0 0 -1
    outer loop
      vertex 52.7125 65.5125 0
      vertex 56.175 59.125 0
      vertex 52.7125 49.7875 0
    endloop
  endfacet
  facet normal 0 0 -1
    outer loop
      vertex 56.175 59.125 0
      vertex 52.7125 69.0875 0
      vertex 56.175 78.675 0
    endloop
  endfacet
  facet normal 0 0 -1
    outer loop
      vertex 52.7125 84.8125 0
      vertex 56.175 78.675 0
      vertex 52.7125 69.0875 0
    endloop
  endfacet
  facet normal 0 0 -1
    outer loop
      vertex 56.175 78.675 0
      vertex 52.7125 84.8125 0
      vertex 56.175 82.925 0
    endloop
  endfacet
  facet normal 0 0 -1
    outer loop
      vertex 52.7125 88.875 0
      vertex 56.175 82.925 0
      vertex 52.7125 84.8125 0
    endloop
  endfacet
  facet normal 0 0 -1
    outer loop
      vertex 56.175 82.925 0
      vertex 52.7125 88.875 0
      vertex 56.175 102.475 0
    endloop
  endfacet
  facet normal 0 0 -1
    outer loop
      vertex 52.7125 110.125 0
      vertex 56.175 102.475 0
      vertex 52.7125 88.875 0
    endloop
  endfacet
  facet normal 0 0 -1
    outer loop
      vertex 73.975 102.475 0
      vertex 52.7125 110.125 0
      vertex 101.1 123.6 0
    endloop
  endfacet
  facet normal 0 0 -1
    outer loop
      vertex 0 123.6 0
      vertex 52.7125 110.125 0
      vertex 36.9875 110.125 0
    endloop
  endfacet
  facet normal -0 0 -1
    outer loop
      vertex 36.9875 46.2125 0
      vertex 32.925 37.475 0
      vertex 36.9875 49.7875 0
    endloop
  endfacet
  facet normal 0 0 -1
    outer loop
      vertex 32.925 63.275 0
      vertex 36.9875 65.5125 0
      vertex 32.925 58.725 0
    endloop
  endfacet
  facet normal 0 0 -1
    outer loop
      vertex 36.9875 69.0875 0
      vertex 32.925 84.525 0
      vertex 36.9875 84.8125 0
    endloop
  endfacet
  facet normal 0 0 -1
    outer loop
      vertex 32.925 89.075 0
      vertex 36.9875 84.8125 0
      vertex 32.925 84.525 0
    endloop
  endfacet
  facet normal 0 0 -1
    outer loop
      vertex 36.9875 84.8125 0
      vertex 32.925 89.075 0
      vertex 36.9875 88.875 0
    endloop
  endfacet
  facet normal 0 0 -1
    outer loop
      vertex 36.9875 88.875 0
      vertex 32.925 89.075 0
      vertex 36.9875 110.125 0
    endloop
  endfacet
  facet normal 0 0 -1
    outer loop
      vertex 32.925 110.325 0
      vertex 36.9875 110.125 0
      vertex 32.925 89.075 0
    endloop
  endfacet
  facet normal 0 0 -1
    outer loop
      vertex 0 123.6 0
      vertex 36.9875 110.125 0
      vertex 32.925 110.325 0
    endloop
  endfacet
  facet normal 0 0 -1
    outer loop
      vertex 0 123.6 0
      vertex 32.925 110.325 0
      vertex 11.675 110.325 0
    endloop
  endfacet
  facet normal 0 0 -1
    outer loop
      vertex 52.7125 110.125 0
      vertex 0 123.6 0
      vertex 101.1 123.6 0
    endloop
  endfacet
  facet normal 0 0 -1
    outer loop
      vertex 11.675 89.075 0
      vertex 0 123.6 0
      vertex 11.675 110.325 0
    endloop
  endfacet
  facet normal 0 -1 0
    outer loop
      vertex 0 0 0
      vertex 101.1 0 7
      vertex 0 0 7
    endloop
  endfacet
  facet normal 0 -1 -0
    outer loop
      vertex 101.1 0 7
      vertex 0 0 0
      vertex 101.1 0 0
    endloop
  endfacet
  facet normal 0 1 -0
    outer loop
      vertex 101.1 123.6 0
      vertex 0 123.6 7
      vertex 101.1 123.6 7
    endloop
  endfacet
  facet normal 0 1 0
    outer loop
      vertex 0 123.6 7
      vertex 101.1 123.6 0
      vertex 0 123.6 0
    endloop
  endfacet
  facet normal 1 -0 0
    outer loop
      vertex 1.61 1.61 7
      vertex 1.61 122.01 2.81
      vertex 1.61 122.01 7
    endloop
  endfacet
  facet normal 1 0 0
    outer loop
      vertex 1.61 122.01 2.81
      vertex 1.61 1.61 7
      vertex 1.61 1.61 2.81
    endloop
  endfacet
  facet normal -1 0 0
    outer loop
      vertex 99.51 1.61 2.81
      vertex 99.51 122.01 7
      vertex 99.51 122.01 2.81
    endloop
  endfacet
  facet normal -1 -0 0
    outer loop
      vertex 99.51 122.01 7
      vertex 99.51 1.61 2.81
      vertex 99.51 1.61 7
    endloop
  endfacet
  facet normal 0 -1 0
    outer loop
      vertex 1.61 122.01 2.81
      vertex 99.51 122.01 7
      vertex 1.61 122.01 7
    endloop
  endfacet
  facet normal 0 -1 -0
    outer loop
      vertex 99.51 122.01 7
      vertex 1.61 122.01 2.81
      vertex 99.51 122.01 2.81
    endloop
  endfacet
  facet normal -0 0 1
    outer loop
      vertex 11.675 37.475 2.81
      vertex 32.925 32.925 2.81
      vertex 32.925 37.475 2.81
    endloop
  endfacet
  facet normal 0 0 1
    outer loop
      vertex 32.925 32.925 2.81
      vertex 11.675 37.475 2.81
      vertex 11.675 32.925 2.81
    endloop
  endfacet
  facet normal -0 0 1
    outer loop
      vertex 11.675 63.275 2.81
      vertex 32.925 58.725 2.81
      vertex 32.925 63.275 2.81
    endloop
  endfacet
  facet normal 0 0 1
    outer loop
      vertex 32.925 58.725 2.81
      vertex 11.675 63.275 2.81
      vertex 11.675 58.725 2.81
    endloop
  endfacet
  facet normal -0 0 1
    outer loop
      vertex 11.675 89.075 2.81
      vertex 32.925 84.525 2.81
      vertex 32.925 89.075 2.81
    endloop
  endfacet
  facet normal 0 0 1
    outer loop
      vertex 32.925 84.525 2.81
      vertex 11.675 89.075 2.81
      vertex 11.675 84.525 2.81
    endloop
  endfacet
  facet normal -0 0 1
    outer loop
      vertex 36.9875 30.4875 2.81
      vertex 52.7125 26.9125 2.81
      vertex 52.7125 30.4875 2.81
    endloop
  endfacet
  facet normal 0 0 1
    outer loop
      vertex 52.7125 26.9125 2.81
      vertex 36.9875 30.4875 2.81
      vertex 36.9875 26.9125 2.81
    endloop
  endfacet
  facet normal -0 0 1
    outer loop
      vertex 36.9875 49.7875 2.81
      vertex 52.7125 46.2125 2.81
      vertex 52.7125 49.7875 2.81
    endloop
  endfacet
  facet normal 0 0 1
    outer loop
      vertex 52.7125 46.2125 2.81
      vertex 36.9875 49.7875 2.81
      vertex 36.9875 46.2125 2.81
    endloop
  endfacet
  facet normal -0 0 1
    outer loop
      vertex 36.9875 69.0875 2.81
      vertex 52.7125 65.5125 2.81
      vertex 52.7125 69.0875 2.81
    endloop
  endfacet
  facet normal 0 0 1
    outer loop
      vertex 52.7125 65.5125 2.81
      vertex 36.9875 69.0875 2.81
      vertex 36.9875 65.5125 2.81
    endloop
  endfacet
  facet normal -0 0 1
    outer loop
      vertex 36.9875 88.875 2.81
      vertex 52.7125 84.8125 2.81
      vertex 52.7125 88.875 2.81
    endloop
  endfacet
  facet normal 0 0 1
    outer loop
      vertex 52.7125 84.8125 2.81
      vertex 36.9875 88.875 2.81
      vertex 36.9875 84.8125 2.81
    endloop
  endfacet
  facet normal -0 0 1
    outer loop
      vertex 56.175 35.325 2.81
      vertex 70.625 31.075 2.81
      vertex 70.625 35.325 2.81
    endloop
  endfacet
  facet normal 0 0 1
    outer loop
      vertex 70.625 31.075 2.81
      vertex 56.175 35.325 2.81
      vertex 56.175 31.075 2.81
    endloop
  endfacet
  facet normal -0 0 1
    outer loop
      vertex 56.175 59.125 2.81
      vertex 70.625 54.875 2.81
      vertex 70.625 59.125 2.81
    endloop
  endfacet
  facet normal 0 0 1
    outer loop
      vertex 70.625 54.875 2.81
      vertex 56.175 59.125 2.81
      vertex 56.175 54.875 2.81
    endloop
  endfacet
  facet normal -0 0 1
    outer loop
      vertex 56.175 82.925 2.81
      vertex 70.625 78.675 2.81
      vertex 70.625 82.925 2.81
    endloop
  endfacet
  facet normal 0 0 1
    outer loop
      vertex 70.625 78.675 2.81
      vertex 56.175 82.925 2.81
      vertex 56.175 78.675 2.81
    endloop
  endfacet
  facet normal -0 0 1
    outer loop
      vertex 73.975 35.325 2.81
      vertex 88.425 31.075 2.81
      vertex 88.425 35.325 2.81
    endloop
  endfacet
  facet normal 0 0 1
    outer loop
      vertex 88.425 31.075 2.81
      vertex 73.975 35.325 2.81
      vertex 73.975 31.075 2.81
    endloop
  endfacet
  facet normal -0 0 1
    outer loop
      vertex 73.975 59.125 2.81
      vertex 88.425 54.875 2.81
      vertex 88.425 59.125 2.81
    endloop
  endfacet
  facet normal 0 0 1
    outer loop
      vertex 88.425 54.875 2.81
      vertex 73.975 59.125 2.81
      vertex 73.975 54.875 2.81
    endloop
  endfacet
  facet normal -0 0 1
    outer loop
      vertex 73.975 82.925 2.81
      vertex 88.425 78.675 2.81
      vertex 88.425 82.925 2.81
    endloop
  endfacet
  facet normal 0 0 1
    outer loop
      vertex 88.425 78.675 2.81
      vertex 73.975 82.925 2.81
      vertex 73.975 78.675 2.81
    endloop
  endfacet
  facet normal 0 0 1
    outer loop
      vertex 88.425 82.925 2.81
      vertex 99.51 122.01 2.81
      vertex 88.425 102.475 2.81
    endloop
  endfacet
  facet normal 0 0 1
    outer loop
      vertex 99.51 122.01 2.81
      vertex 73.975 102.475 2.81
      vertex 88.425 102.475 2.81
    endloop
  endfacet
  facet normal 0 0 1
    outer loop
      vertex 70.625 82.925 2.81
      vertex 73.975 82.925 2.81
      vertex 73.975 102.475 2.81
    endloop
  endfacet
  facet normal 0 0 1
    outer loop
      vertex 73.975 82.925 2.81
      vertex 70.625 82.925 2.81
      vertex 73.975 78.675 2.81
    endloop
  endfacet
  facet normal 0 0 1
    outer loop
      vertex 73.975 78.675 2.81
      vertex 70.625 78.675 2.81
      vertex 73.975 59.125 2.81
    endloop
  endfacet
  facet normal 0 0 1
    outer loop
      vertex 70.625 59.125 2.81
      vertex 73.975 59.125 2.81
      vertex 70.625 78.675 2.81
    endloop
  endfacet
  facet normal 0 0 1
    outer loop
      vertex 70.625 54.875 2.81
      vertex 73.975 54.875 2.81
      vertex 70.625 59.125 2.81
    endloop
  endfacet
  facet normal 0 0 1
    outer loop
      vertex 73.975 54.875 2.81
      vertex 70.625 54.875 2.81
      vertex 73.975 35.325 2.81
    endloop
  endfacet
  facet normal 0 0 1
    outer loop
      vertex 70.625 82.925 2.81
      vertex 73.975 102.475 2.81
      vertex 70.625 102.475 2.81
    endloop
  endfacet
  facet normal 0 0 1
    outer loop
      vertex 99.51 122.01 2.81
      vertex 70.625 102.475 2.81
      vertex 73.975 102.475 2.81
    endloop
  endfacet
  facet normal -0 0 1
    outer loop
      vertex 52.7125 110.125 2.81
      vertex 70.625 102.475 2.81
      vertex 99.51 122.01 2.81
    endloop
  endfacet
  facet normal -0 0 1
    outer loop
      vertex 52.7125 88.875 2.81
      vertex 56.175 82.925 2.81
      vertex 56.175 102.475 2.81
    endloop
  endfacet
  facet normal -0 0 1
    outer loop
      vertex 52.7125 84.8125 2.81
      vertex 56.175 82.925 2.81
      vertex 52.7125 88.875 2.81
    endloop
  endfacet
  facet normal 0 0 1
    outer loop
      vertex 52.7125 69.0875 2.81
      vertex 56.175 78.675 2.81
      vertex 52.7125 84.8125 2.81
    endloop
  endfacet
  facet normal 0 0 1
    outer loop
      vertex 56.175 78.675 2.81
      vertex 52.7125 69.0875 2.81
      vertex 56.175 59.125 2.81
    endloop
  endfacet
  facet normal 0 0 1
    outer loop
      vertex 52.7125 49.7875 2.81
      vertex 56.175 59.125 2.81
      vertex 52.7125 65.5125 2.81
    endloop
  endfacet
  facet normal 0 0 1
    outer loop
      vertex 52.7125 46.2125 2.81
      vertex 56.175 54.875 2.81
      vertex 52.7125 49.7875 2.81
    endloop
  endfacet
  facet normal 0 0 1
    outer loop
      vertex 52.7125 88.875 2.81
      vertex 56.175 102.475 2.81
      vertex 52.7125 110.125 2.81
    endloop
  endfacet
  facet normal 0 0 1
    outer loop
      vertex 70.625 102.475 2.81
      vertex 52.7125 110.125 2.81
      vertex 56.175 102.475 2.81
    endloop
  endfacet
  facet normal -0 0 1
    outer loop
      vertex 1.61 122.01 2.81
      vertex 52.7125 110.125 2.81
      vertex 99.51 122.01 2.81
    endloop
  endfacet
  facet normal -0 0 1
    outer loop
      vertex 32.925 89.075 2.81
      vertex 36.9875 88.875 2.81
      vertex 36.9875 110.125 2.81
    endloop
  endfacet
  facet normal 0 0 1
    outer loop
      vertex 36.9875 88.875 2.81
      vertex 32.925 89.075 2.81
      vertex 36.9875 84.8125 2.81
    endloop
  endfacet
  facet normal 0 0 1
    outer loop
      vertex 32.925 84.525 2.81
      vertex 36.9875 84.8125 2.81
      vertex 32.925 89.075 2.81
    endloop
  endfacet
  facet normal 0 0 1
    outer loop
      vertex 36.9875 84.8125 2.81
      vertex 32.925 84.525 2.81
      vertex 36.9875 69.0875 2.81
    endloop
  endfacet
  facet normal 0 0 1
    outer loop
      vertex 36.9875 69.0875 2.81
      vertex 32.925 63.275 2.81
      vertex 36.9875 65.5125 2.81
    endloop
  endfacet
  facet normal 0 0 1
    outer loop
      vertex 32.925 58.725 2.81
      vertex 36.9875 65.5125 2.81
      vertex 32.925 63.275 2.81
    endloop
  endfacet
  facet normal 0 0 1
    outer loop
      vertex 36.9875 49.7875 2.81
      vertex 32.925 58.725 2.81
      vertex 36.9875 46.2125 2.81
    endloop
  endfacet
  facet normal 0 0 1
    outer loop
      vertex 32.925 37.475 2.81
      vertex 36.9875 46.2125 2.81
      vertex 32.925 58.725 2.81
    endloop
  endfacet
  facet normal 0 0 1
    outer loop
      vertex 32.925 89.075 2.81
      vertex 36.9875 110.125 2.81
      vertex 32.925 110.325 2.81
    endloop
  endfacet
  facet normal 0 0 1
    outer loop
      vertex 52.7125 110.125 2.81
      vertex 1.61 122.01 2.81
      vertex 36.9875 110.125 2.81
    endloop
  endfacet
  facet normal 0 0 1
    outer loop
      vertex 36.9875 110.125 2.81
      vertex 1.61 122.01 2.81
      vertex 32.925 110.325 2.81
    endloop
  endfacet
  facet normal 0 0 1
    outer loop
      vertex 1.61 122.01 2.81
      vertex 11.675 89.075 2.81
      vertex 11.675 110.325 2.81
    endloop
  endfacet
  facet normal 0 0 1
    outer loop
      vertex 11.675 89.075 2.81
      vertex 1.61 122.01 2.81
      vertex 11.675 84.525 2.81
    endloop
  endfacet
  facet normal 0 0 1
    outer loop
      vertex 11.675 84.525 2.81
      vertex 1.61 122.01 2.81
      vertex 11.675 63.275 2.81
    endloop
  endfacet
  facet normal 0 0 1
    outer loop
      vertex 11.675 63.275 2.81
      vertex 1.61 122.01 2.81
      vertex 11.675 58.725 2.81
    endloop
  endfacet
  facet normal 0 0 1
    outer loop
      vertex 1.61 1.61 2.81
      vertex 11.675 58.725 2.81
      vertex 1.61 122.01 2.81
    endloop
  endfacet
  facet normal 0 0 1
    outer loop
      vertex 11.675 58.725 2.81
      vertex 1.61 1.61 2.81
      vertex 11.675 37.475 2.81
    endloop
  endfacet
  facet normal 0 0 1
    outer loop
      vertex 11.675 37.475 2.81
      vertex 1.61 1.61 2.81
      vertex 11.675 32.925 2.81
    endloop
  endfacet
  facet normal 0 0 1
    outer loop
      vertex 32.925 110.325 2.81
      vertex 1.61 122.01 2.81
      vertex 11.675 110.325 2.81
    endloop
  endfacet
  facet normal 0 0 1
    outer loop
      vertex 88.425 78.675 2.81
      vertex 99.51 122.01 2.81
      vertex 88.425 82.925 2.81
    endloop
  endfacet
  facet normal 0 0 1
    outer loop
      vertex 88.425 59.125 2.81
      vertex 99.51 122.01 2.81
      vertex 88.425 78.675 2.81
    endloop
  endfacet
  facet normal 0 0 1
    outer loop
      vertex 99.51 122.01 2.81
      vertex 88.425 59.125 2.81
      vertex 99.51 1.61 2.81
    endloop
  endfacet
  facet normal -0 0 1
    outer loop
      vertex 88.425 54.875 2.81
      vertex 99.51 1.61 2.81
      vertex 88.425 59.125 2.81
    endloop
  endfacet
  facet normal -0 0 1
    outer loop
      vertex 88.425 35.325 2.81
      vertex 99.51 1.61 2.81
      vertex 88.425 54.875 2.81
    endloop
  endfacet
  facet normal -0 0 1
    outer loop
      vertex 88.425 31.075 2.81
      vertex 99.51 1.61 2.81
      vertex 88.425 35.325 2.81
    endloop
  endfacet
  facet normal -0 0 1
    outer loop
      vertex 88.425 11.525 2.81
      vertex 99.51 1.61 2.81
      vertex 88.425 31.075 2.81
    endloop
  endfacet
  facet normal -0 0 1
    outer loop
      vertex 73.975 11.525 2.81
      vertex 99.51 1.61 2.81
      vertex 88.425 11.525 2.81
    endloop
  endfacet
  facet normal 0 0 1
    outer loop
      vertex 73.975 78.675 2.81
      vertex 70.625 82.925 2.81
      vertex 70.625 78.675 2.81
    endloop
  endfacet
  facet normal 0 0 1
    outer loop
      vertex 73.975 59.125 2.81
      vertex 70.625 59.125 2.81
      vertex 73.975 54.875 2.81
    endloop
  endfacet
  facet normal 0 0 1
    outer loop
      vertex 70.625 35.325 2.81
      vertex 73.975 35.325 2.81
      vertex 70.625 54.875 2.81
    endloop
  endfacet
  facet normal 0 0 1
    outer loop
      vertex 73.975 35.325 2.81
      vertex 70.625 35.325 2.81
      vertex 73.975 31.075 2.81
    endloop
  endfacet
  facet normal 0 0 1
    outer loop
      vertex 70.625 31.075 2.81
      vertex 73.975 31.075 2.81
      vertex 70.625 35.325 2.81
    endloop
  endfacet
  facet normal 0 0 1
    outer loop
      vertex 73.975 31.075 2.81
      vertex 70.625 31.075 2.81
      vertex 73.975 11.525 2.81
    endloop
  endfacet
  facet normal 0 0 1
    outer loop
      vertex 70.625 11.525 2.81
      vertex 73.975 11.525 2.81
      vertex 70.625 31.075 2.81
    endloop
  endfacet
  facet normal -0 0 1
    outer loop
      vertex 70.625 11.525 2.81
      vertex 99.51 1.61 2.81
      vertex 73.975 11.525 2.81
    endloop
  endfacet
  facet normal -0 0 1
    outer loop
      vertex 56.175 11.525 2.81
      vertex 99.51 1.61 2.81
      vertex 70.625 11.525 2.81
    endloop
  endfacet
  facet normal 0 0 1
    outer loop
      vertex 56.175 82.925 2.81
      vertex 52.7125 84.8125 2.81
      vertex 56.175 78.675 2.81
    endloop
  endfacet
  facet normal -0 0 1
    outer loop
      vertex 52.7125 65.5125 2.81
      vertex 56.175 59.125 2.81
      vertex 52.7125 69.0875 2.81
    endloop
  endfacet
  facet normal 0 0 1
    outer loop
      vertex 56.175 59.125 2.81
      vertex 52.7125 49.7875 2.81
      vertex 56.175 54.875 2.81
    endloop
  endfacet
  facet normal 0 0 1
    outer loop
      vertex 56.175 54.875 2.81
      vertex 52.7125 46.2125 2.81
      vertex 56.175 35.325 2.81
    endloop
  endfacet
  facet normal 0 0 1
    outer loop
      vertex 52.7125 30.4875 2.81
      vertex 56.175 35.325 2.81
      vertex 52.7125 46.2125 2.81
    endloop
  endfacet
  facet normal 0 0 1
    outer loop
      vertex 56.175 35.325 2.81
      vertex 52.7125 30.4875 2.81
      vertex 56.175 31.075 2.81
    endloop
  endfacet
  facet normal 0 0 1
    outer loop
      vertex 52.7125 26.9125 2.81
      vertex 56.175 31.075 2.81
      vertex 52.7125 30.4875 2.81
    endloop
  endfacet
  facet normal 0 0 1
    outer loop
      vertex 56.175 31.075 2.81
      vertex 52.7125 26.9125 2.81
      vertex 56.175 11.525 2.81
    endloop
  endfacet
  facet normal 0 0 1
    outer loop
      vertex 52.7125 11.1875 2.81
      vertex 56.175 11.525 2.81
      vertex 52.7125 26.9125 2.81
    endloop
  endfacet
  facet normal -0 0 1
    outer loop
      vertex 52.7125 11.1875 2.81
      vertex 99.51 1.61 2.81
      vertex 56.175 11.525 2.81
    endloop
  endfacet
  facet normal 0 0 1
    outer loop
      vertex 1.61 1.61 2.81
      vertex 52.7125 11.1875 2.81
      vertex 36.9875 11.1875 2.81
    endloop
  endfacet
  facet normal 0 0 1
    outer loop
      vertex 32.925 63.275 2.81
      vertex 36.9875 69.0875 2.81
      vertex 32.925 84.525 2.81
    endloop
  endfacet
  facet normal 0 0 1
    outer loop
      vertex 36.9875 65.5125 2.81
      vertex 32.925 58.725 2.81
      vertex 36.9875 49.7875 2.81
    endloop
  endfacet
  facet normal 0 0 1
    outer loop
      vertex 36.9875 46.2125 2.81
      vertex 32.925 37.475 2.81
      vertex 36.9875 30.4875 2.81
    endloop
  endfacet
  facet normal -0 0 1
    outer loop
      vertex 32.925 32.925 2.81
      vertex 36.9875 30.4875 2.81
      vertex 32.925 37.475 2.81
    endloop
  endfacet
  facet normal 0 0 1
    outer loop
      vertex 36.9875 30.4875 2.81
      vertex 32.925 32.925 2.81
      vertex 36.9875 26.9125 2.81
    endloop
  endfacet
  facet normal 0 0 1
    outer loop
      vertex 32.925 11.675 2.81
      vertex 36.9875 26.9125 2.81
      vertex 32.925 32.925 2.81
    endloop
  endfacet
  facet normal 0 0 1
    outer loop
      vertex 36.9875 26.9125 2.81
      vertex 32.925 11.675 2.81
      vertex 36.9875 11.1875 2.81
    endloop
  endfacet
  facet normal 0 0 1
    outer loop
      vertex 1.61 1.61 2.81
      vertex 36.9875 11.1875 2.81
      vertex 32.925 11.675 2.81
    endloop
  endfacet
  facet normal 0 0 1
    outer loop
      vertex 1.61 1.61 2.81
      vertex 32.925 11.675 2.81
      vertex 11.675 11.675 2.81
    endloop
  endfacet
  facet normal 0 0 1
    outer loop
      vertex 52.7125 11.1875 2.81
      vertex 1.61 1.61 2.81
      vertex 99.51 1.61 2.81
    endloop
  endfacet
  facet normal 0 0 1
    outer loop
      vertex 11.675 32.925 2.81
      vertex 1.61 1.61 2.81
      vertex 11.675 11.675 2.81
    endloop
  endfacet
  facet normal 0 1 -0
    outer loop
      vertex 99.51 1.61 2.81
      vertex 1.61 1.61 7
      vertex 99.51 1.61 7
    endloop
  endfacet
  facet normal 0 1 0
    outer loop
      vertex 1.61 1.61 7
      vertex 99.51 1.61 2.81
      vertex 1.61 1.61 2.81
    endloop
  endfacet
endsolid OpenSCAD_Model
